<svg width="101" height="90" viewBox="0 0 101 90" fill="none" xmlns="http://www.w3.org/2000/svg">
<g id="image">
<g id="Floor  inject 1">
<path id="Vector" d="M19.1756 80.1773C37.7754 93.2743 67.9434 93.2743 86.5432 80.1773C105.143 67.0802 105.143 45.8485 86.5432 32.7541C67.9434 19.6597 37.7754 19.657 19.1756 32.7541C0.57574 45.8512 0.568936 67.0829 19.1756 80.1773Z" fill="#FAFAFA"/>
</g>
<g id="Plants  inject 1">
<path id="Vector_2" d="M91.9106 31.7938C92.0127 30.274 92.9949 27.6833 94.4488 25.8443C95.9028 24.0054 98.23 23.1075 99.6659 23.8512C101.004 24.5462 100.709 26.6826 98.9446 27.9456C97.1798 29.2085 94.5532 30.7608 93.6527 33.1541L91.9106 36.0261V31.7938Z" fill="#0D8BC9"/>
<path id="Vector_3" opacity="0.2" d="M91.9106 31.7938C92.0127 30.274 92.9949 27.6833 94.4488 25.8443C95.9028 24.0054 98.23 23.1075 99.6659 23.8512C101.004 24.5462 100.709 26.6826 98.9446 27.9456C97.1798 29.2085 94.5532 30.7608 93.6527 33.1541L91.9106 36.0261V31.7938Z" fill="black"/>
<path id="Vector_4" d="M99.1097 24.5544C97.4425 24.933 92.5566 28.6839 91.917 34.3468" stroke="white" stroke-miterlimit="10" stroke-linecap="round"/>
<path id="Vector_5" d="M92.1077 38.6169C92.364 37.8056 93.48 36.2993 95.0859 35.561C96.6919 34.8228 97.9031 34.1629 98.4883 32.973C99.0736 31.7831 98.0551 30.6148 96.4333 30.6987C94.8115 30.7825 92.11 32.808 91.9194 36.0262L92.1077 38.6169Z" fill="#0D8BC9"/>
<path id="Vector_6" d="M97.2591 31.6613C95.8573 31.8262 92.4504 34.2899 91.9922 37.0483" stroke="white" stroke-miterlimit="10" stroke-linecap="round"/>
<path id="Vector_7" d="M8.32454 46.3404C8.25523 44.1919 7.85462 42.077 7.14277 40.1015C5.94739 36.7238 3.52942 34.9363 2.24104 34.6929C0.95266 34.4495 -0.378815 36.3155 1.26114 38.533C2.9011 40.7506 6.04493 43.7199 6.9477 48.2118L8.42434 51.2785L8.32454 46.3404Z" fill="#0D8BC9"/>
<path id="Vector_8" opacity="0.2" d="M8.32454 46.3404C8.25523 44.1919 7.85462 42.077 7.14277 40.1015C5.94739 36.7238 3.52942 34.9363 2.24104 34.6929C0.95266 34.4495 -0.378815 36.3155 1.26114 38.533C2.9011 40.7506 6.04493 43.7199 6.9477 48.2118L8.42434 51.2785L8.32454 46.3404Z" fill="black"/>
<path id="Vector_9" d="M2.24023 35.7234C4.88504 37.6003 7.94947 42.5248 8.37817 49.0693" stroke="white" stroke-linecap="round" stroke-linejoin="round"/>
<path id="Vector_10" d="M8.12302 54.4238C7.75783 52.6795 6.80288 50.9785 4.89527 49.2693C2.98765 47.5602 0.438117 46.0917 0.646798 44.3474C0.855479 42.6031 2.78805 42.7248 4.20345 43.4956C5.61885 44.2663 8.07312 47.4385 8.4247 51.2732L8.12302 54.4238Z" fill="#0D8BC9"/>
<path id="Vector_11" d="M1.98438 43.801C3.82167 44.3419 7.76393 48.6418 8.33554 52.3034" stroke="white" stroke-linecap="round" stroke-linejoin="round"/>
</g>
<g id="image folder  inject 1">
<path id="Vector_12" d="M8.64426 55.5001C8.49186 55.3817 8.36513 55.2219 8.27446 55.0339C8.18378 54.8459 8.13173 54.635 8.12256 54.4184V15.3813C8.13209 15.1648 8.18429 14.9541 8.27493 14.7661C8.36558 14.5782 8.49211 14.4183 8.64426 14.2996L20.3417 6.24881C20.493 6.13625 20.6671 6.07489 20.8453 6.07133C21.0236 6.06776 21.1993 6.12212 21.3537 6.22857C21.508 6.33502 21.6351 6.48955 21.7214 6.67558C21.8076 6.86162 21.8498 7.07214 21.8433 7.28457V9.89154C21.8433 10.2891 22.0702 10.4513 22.3673 10.2512L37.0045 0.177583C37.1555 0.0651688 37.3294 0.00384569 37.5075 0.000175046C37.6855 -0.0034956 37.8611 0.0506243 38.0153 0.156744C38.1696 0.262864 38.2967 0.41699 38.3832 0.602629C38.4696 0.788268 38.5121 0.998434 38.5061 1.21064V61.2144L27.7182 68.635L8.64426 55.5001Z" fill="#263238"/>
<path id="Vector_13" d="M38.016 0.161525C37.8579 0.0696459 37.6838 0.0237054 37.508 0.0274658C37.3321 0.0312262 37.1596 0.084581 37.0043 0.18316L22.3672 10.2568C22.0768 10.4569 21.8432 10.2947 21.8432 9.89712V7.29014C21.8497 7.07771 21.8075 6.86719 21.7212 6.68116C21.635 6.49513 21.5079 6.3406 21.3535 6.23415C21.1992 6.1277 21.0235 6.07334 20.8452 6.07691C20.667 6.08047 20.4929 6.14182 20.3416 6.25438L8.64414 14.3052C8.49042 14.4212 8.36335 14.5811 8.27441 14.7703L14.984 19.3893L38.5059 3.19308V1.21621C38.4995 1.00689 38.4518 0.802311 38.3667 0.619069C38.2815 0.435828 38.1614 0.279078 38.016 0.161525Z" fill="#455A64"/>
<path id="Vector_14" d="M37.9854 0.853603L22.3684 11.6033C22.078 11.8034 21.8444 11.6412 21.8444 11.2436V7.28721C21.8444 6.88967 21.6176 6.72741 21.3227 6.92753L9.62522 14.9783C9.47294 15.0969 9.34631 15.2567 9.25565 15.4447C9.16499 15.6326 9.11286 15.8435 9.10352 16.0601V53.7611C9.11275 53.978 9.16508 54.1892 9.25617 54.3773C9.34727 54.5654 9.47453 54.7249 9.62749 54.8429L28.7059 67.9751L38.5071 61.2305V1.21328C38.5071 0.815743 38.2735 0.656187 37.9854 0.853603Z" fill="#37474F"/>
<path id="Vector_15" d="M9.25781 54.3616C9.34538 54.552 9.47274 54.7122 9.62754 54.8267L28.706 67.959L38.5072 61.2143V34.2278L9.25781 54.3616Z" fill="#263238"/>
<path id="Vector_16" d="M11.6245 62.9559L11.4816 62.8586C11.3598 62.7642 11.2583 62.6369 11.1854 62.487C11.1125 62.3371 11.0702 62.1689 11.062 61.9959V25.3657C11.0697 25.1926 11.1117 25.0241 11.1847 24.8741C11.2576 24.7242 11.3594 24.597 11.4816 24.503L42.9879 2.81429C43.1176 2.73568 43.261 2.6947 43.4064 2.6947C43.5519 2.6947 43.6953 2.73568 43.8249 2.81429L43.9678 2.91435C44.09 3.00829 44.1918 3.13547 44.2648 3.28545C44.3377 3.43542 44.3798 3.6039 44.3875 3.77703V40.3991C44.3792 40.5721 44.337 40.7403 44.2641 40.8902C44.1912 41.0401 44.0897 41.1674 43.9678 41.2618L12.4615 62.9559C12.3319 63.0345 12.1885 63.0755 12.043 63.0755C11.8976 63.0755 11.7542 63.0345 11.6245 62.9559Z" fill="#F5F5F5"/>
<path id="Vector_17" d="M13.0218 26.1311L11.1845 24.8655C11.1096 25.0147 11.0675 25.184 11.062 25.3577V61.9879C11.0702 62.1609 11.1125 62.3291 11.1854 62.479C11.2583 62.6289 11.3598 62.7561 11.4816 62.8506L11.6245 62.9479C11.7542 63.0265 11.8976 63.0675 12.043 63.0675C12.1885 63.0675 12.3319 63.0265 12.4615 62.9479L13.0218 62.5612V26.1311Z" fill="#E0E0E0"/>
<path id="Vector_18" d="M12.0449 62.6613V26.0311C12.0527 25.8583 12.0946 25.6902 12.1671 25.5403C12.2396 25.3904 12.3407 25.263 12.4623 25.1684L43.9686 3.47969C44.1954 3.32284 44.3882 3.44994 44.3882 3.76905V40.3992C44.38 40.5722 44.3377 40.7405 44.2648 40.8903C44.1919 41.0402 44.0904 41.1675 43.9686 41.2619L12.4623 62.9561C12.2309 63.1075 12.0449 62.9804 12.0449 62.6613Z" fill="#EBEBEB"/>
<path id="Vector_19" d="M14.5256 26.4475L41.9036 7.60375C42.1917 7.40363 42.4253 7.56589 42.4253 7.96343V36.2075C42.4162 36.4241 42.3641 36.635 42.2734 36.823C42.1828 37.0111 42.056 37.1708 41.9036 37.2892L14.5256 56.1303C14.2375 56.3304 14.0039 56.1682 14.0039 55.7706V27.5293C14.0134 27.3128 14.0656 27.102 14.1563 26.914C14.2469 26.7261 14.3735 26.5663 14.5256 26.4475Z" fill="white"/>
<path id="Vector_20" d="M19.0515 25.0386C20.7572 23.8649 22.1386 24.8168 22.1386 27.1642C22.1386 29.5116 20.7572 32.3646 19.0515 33.5383C17.3457 34.712 15.9644 33.7628 15.9644 31.4154C15.9644 29.0681 17.3457 26.2123 19.0515 25.0386Z" fill="#0D8BC9"/>
<path id="Vector_21" d="M21.9111 33.5518C22.0158 33.3191 22.1652 33.1192 22.3471 32.9686C22.529 32.8179 22.7382 32.7206 22.9576 32.6848C23.177 32.6489 23.4005 32.6754 23.6097 32.7622C23.8188 32.849 24.0078 32.9935 24.1612 33.184L27.7179 37.6002L34.4773 17.8288C34.5765 17.5389 34.7419 17.288 34.9548 17.1045C35.1676 16.9211 35.4193 16.8125 35.6813 16.7911C35.9433 16.7697 36.2051 16.8363 36.437 16.9834C36.6688 17.1305 36.8614 17.3522 36.9928 17.6233L42.4208 28.83V36.2074C42.4116 36.424 42.3596 36.635 42.2689 36.823C42.1782 37.011 42.0515 37.1707 41.8991 37.2892L14.5256 56.1302C14.2375 56.3304 14.0039 56.1681 14.0039 55.7706V51.0921L21.9111 33.5518Z" fill="#0D8BC9"/>
<path id="Vector_22" d="M17.5113 67.0124L17.3661 66.9124C17.2445 66.8178 17.1434 66.6904 17.0709 66.5405C16.9984 66.3906 16.9565 66.2225 16.9487 66.0497V29.406C16.9565 29.2332 16.9984 29.065 17.0709 28.9151C17.1434 28.7653 17.2445 28.6379 17.3661 28.5433L48.8747 6.85726C49.0036 6.7776 49.1468 6.73602 49.292 6.73602C49.4373 6.73602 49.5804 6.7776 49.7094 6.85726L49.8545 6.95462C49.9761 7.04918 50.0772 7.17657 50.1497 7.32646C50.2223 7.47635 50.2641 7.64451 50.2719 7.8173V44.4475C50.2654 44.6206 50.2241 44.7894 50.1514 44.9395C50.0788 45.0896 49.977 45.2168 49.8545 45.3102L18.3415 67.0124C18.2131 67.0912 18.0707 67.1323 17.9264 67.1323C17.782 67.1323 17.6397 67.0912 17.5113 67.0124Z" fill="#F5F5F5"/>
<path id="Vector_23" d="M18.9041 30.1822L17.0668 28.9166C16.9922 29.0649 16.9501 29.2332 16.9443 29.406V66.0362C16.9521 66.209 16.994 66.3772 17.0665 66.5271C17.139 66.677 17.2401 66.8043 17.3617 66.8989L17.5069 66.999C17.6358 67.0786 17.779 67.1202 17.9242 67.1202C18.0695 67.1202 18.2126 67.0786 18.3416 66.999L18.9041 66.6122V30.1822Z" fill="#E0E0E0"/>
<path id="Vector_24" d="M17.9238 66.7123V30.0821C17.9318 29.9093 17.9737 29.7413 18.0462 29.5914C18.1187 29.4415 18.2198 29.3141 18.3412 29.2194L49.8497 7.53066C50.0766 7.3711 50.2671 7.50091 50.2671 7.81731V44.4475C50.2606 44.6206 50.2193 44.7894 50.1466 44.9395C50.074 45.0896 49.9722 45.2168 49.8497 45.3102L18.3412 67.0124C18.1121 67.1585 17.9238 67.0287 17.9238 66.7123Z" fill="#EBEBEB"/>
<path id="Vector_25" d="M20.4087 30.5039L47.7868 11.6574C48.0748 11.46 48.3085 11.6222 48.3085 12.0171V40.2557C48.2991 40.4722 48.247 40.6831 48.1563 40.8711C48.0657 41.0591 47.939 41.2189 47.7868 41.3374L20.4087 60.1839C20.1184 60.3813 19.8848 60.2218 19.8848 59.8242V31.5856C19.8942 31.3688 19.9466 31.1577 20.0377 30.9696C20.1287 30.7816 20.2559 30.622 20.4087 30.5039Z" fill="white"/>
<path id="Vector_26" d="M24.9328 29.0897C26.6363 27.916 28.0199 28.8679 28.0199 31.2153C28.0199 33.5627 26.6363 36.4157 24.9328 37.5894C23.2293 38.7631 21.8457 37.8112 21.8457 35.4638C21.8457 33.1164 23.2271 30.2634 24.9328 29.0897Z" fill="#0D8BC9"/>
<path id="Vector_27" d="M27.793 37.6028C27.8974 37.3702 28.0466 37.1703 28.2283 37.0196C28.41 36.8689 28.619 36.7717 28.8383 36.7358C29.0575 36.6999 29.2808 36.7264 29.4898 36.8132C29.6989 36.9 29.8877 37.0445 30.0408 37.235L33.6156 41.6512L40.3728 21.8798C40.4717 21.5893 40.6372 21.3376 40.8502 21.1537C41.0633 20.9697 41.3154 20.8608 41.5778 20.8394C41.8403 20.818 42.1025 20.8849 42.3346 21.0325C42.5667 21.1801 42.7593 21.4025 42.8906 21.6743L48.3163 32.8811V40.2558C48.3069 40.4723 48.2548 40.6832 48.1641 40.8712C48.0735 41.0592 47.9469 41.2189 47.7946 41.3375L20.4165 60.184C20.1262 60.3814 19.8926 60.2219 19.8926 59.8243V55.1458L27.793 37.6028Z" fill="#0D8BC9"/>
<path id="Vector_28" d="M23.3864 71.0446L23.2435 70.9473C23.122 70.8527 23.0209 70.7253 22.9483 70.5754C22.8758 70.4255 22.834 70.2574 22.8262 70.0846V33.4544C22.8339 33.2813 22.8759 33.1128 22.9489 32.9628C23.0218 32.8129 23.1236 32.6857 23.2458 32.5917L54.7521 10.903C54.8817 10.8244 55.0251 10.7834 55.1706 10.7834C55.316 10.7834 55.4594 10.8244 55.5891 10.903L55.732 11.0031C55.8542 11.097 55.956 11.2242 56.0289 11.3742C56.1019 11.5241 56.1439 11.6926 56.1516 11.8657V48.4959C56.1434 48.6689 56.1011 48.8371 56.0282 48.987C55.9553 49.1369 55.8538 49.2642 55.732 49.3586L24.2257 71.0446C24.0958 71.1237 23.9519 71.1649 23.8061 71.1649C23.6602 71.1649 23.5164 71.1237 23.3864 71.0446Z" fill="#F5F5F5"/>
<path id="Vector_29" d="M24.785 34.2279L22.9545 32.9622C22.8796 33.1114 22.8375 33.2807 22.832 33.4544V70.0846C22.8398 70.2574 22.8817 70.4256 22.9542 70.5755C23.0267 70.7254 23.1278 70.8527 23.2494 70.9473L23.3923 71.0447C23.5219 71.1233 23.6653 71.1643 23.8108 71.1643C23.9562 71.1643 24.0996 71.1233 24.2293 71.0447L24.7918 70.658L24.785 34.2279Z" fill="#E0E0E0"/>
<path id="Vector_30" d="M23.8052 70.7581V34.1279C23.813 33.9551 23.8548 33.787 23.9273 33.6371C23.9999 33.4872 24.101 33.3598 24.2225 33.2652L55.7288 11.5738C55.9557 11.4169 56.1485 11.544 56.1485 11.8631V48.496C56.1402 48.669 56.098 48.8372 56.0251 48.9871C55.9521 49.137 55.8507 49.2643 55.7288 49.3587L24.2225 71.0447C23.9912 71.2043 23.8052 71.0691 23.8052 70.7581Z" fill="#EBEBEB"/>
<path id="Vector_31" d="M26.2873 34.5416L53.6654 15.6978C53.9534 15.4977 54.1871 15.6599 54.1871 16.0575V44.2961C54.1777 44.5127 54.1256 44.7235 54.0349 44.9115C53.9443 45.0995 53.8176 45.2593 53.6654 45.3779L26.2873 64.2271C25.9993 64.4272 25.7656 64.2649 25.7656 63.8674V35.6206C25.7755 35.4046 25.8279 35.1944 25.9185 35.0069C26.0091 34.8195 26.1355 34.6601 26.2873 34.5416Z" fill="white"/>
<path id="Vector_32" d="M30.8127 33.1353C32.5184 31.9617 33.8998 32.9136 33.8998 35.2609C33.8998 37.6083 32.5184 40.4614 30.8127 41.6351C29.1069 42.8087 27.7188 41.8622 27.7188 39.5122C27.7188 37.1621 29.1069 34.309 30.8127 33.1353Z" fill="#0D8BC9"/>
<path id="Vector_33" d="M33.6728 41.6485C33.7775 41.4158 33.9269 41.216 34.1088 41.0653C34.2907 40.9146 34.4999 40.8174 34.7193 40.7815C34.9388 40.7456 35.1622 40.7722 35.3714 40.8589C35.5806 40.9457 35.7696 41.0902 35.9229 41.2807L39.4864 45.6969L46.2458 25.9255C46.3451 25.6356 46.5105 25.3847 46.7233 25.2013C46.9361 25.0178 47.1879 24.9093 47.4499 24.8879C47.7119 24.8665 47.9737 24.9331 48.2055 25.0802C48.4373 25.2273 48.6299 25.4489 48.7614 25.72L54.1893 36.9268V44.2961C54.1792 44.5127 54.1265 44.7235 54.0355 44.9114C53.9445 45.0993 53.8177 45.259 53.6654 45.3778L26.2873 64.227C25.9993 64.4271 25.7656 64.2648 25.7656 63.8673V59.1888L33.6728 41.6485Z" fill="#0D8BC9"/>
<path id="Vector_34" d="M28.7051 67.959L31.6448 65.9362V69.9845L28.7051 67.959Z" fill="#263238"/>
<path id="Vector_35" d="M31.6451 39.6691V69.2653C31.6451 69.6628 31.4183 69.8224 31.1234 69.625L28.7054 67.9591L27.7188 68.6352L32.0965 71.6478C32.2584 71.7466 32.4375 71.7981 32.6193 71.7981C32.8011 71.7981 32.9803 71.7466 33.1422 71.6478L63.4667 50.7866C63.6193 50.6682 63.7462 50.5085 63.8373 50.3205C63.9283 50.1326 63.9809 49.9216 63.9907 49.7049V18.7565C63.9966 18.544 63.954 18.3335 63.8675 18.1476C63.7809 17.9618 63.6536 17.8074 63.4992 17.701C63.3448 17.5947 63.169 17.5403 62.9907 17.5438C62.8124 17.5473 62.6382 17.6084 62.4868 17.7207L32.1691 38.5901C32.0166 38.7079 31.8896 38.8671 31.7985 39.0546C31.7075 39.2422 31.6549 39.4527 31.6451 39.6691Z" fill="#263238"/>
<path id="Vector_36" d="M33.6157 40.2992L64.0105 19.3866V18.7565C64.0165 18.544 63.9739 18.3335 63.8874 18.1476C63.8008 17.9618 63.6735 17.8074 63.5191 17.701C63.3647 17.5947 63.1889 17.5403 63.0106 17.5438C62.8323 17.5473 62.6581 17.6084 62.5067 17.7207L32.1686 38.5901C32.0138 38.7045 31.8864 38.8648 31.7988 39.0552L33.6157 40.2992Z" fill="#455A64"/>
<path id="Vector_37" d="M63.4662 18.3966L33.1485 39.266C32.9959 39.3844 32.8689 39.5441 32.7779 39.732C32.6868 39.92 32.6343 40.1309 32.6245 40.3477V71.288C32.6245 71.6855 32.8513 71.8478 33.1485 71.6476L63.4662 50.7864C63.6188 50.668 63.7457 50.5083 63.8368 50.3203C63.9278 50.1324 63.9804 49.9214 63.9902 49.7047V18.7563C63.9902 18.3588 63.7543 18.1965 63.4662 18.3966Z" fill="#37474F"/>
<path id="Vector_38" d="M40.6978 58.4317C40.6397 58.4327 40.5825 58.4149 40.5322 58.3803C40.4718 58.3329 40.4233 58.2669 40.3918 58.1893C40.3602 58.1117 40.3468 58.0254 40.353 57.9395V42.898C40.3611 42.7016 40.4082 42.5104 40.4907 42.3401C40.5731 42.1698 40.6885 42.0255 40.8271 41.919L55.6752 31.6994C55.7326 31.6453 55.8024 31.6131 55.8753 31.6069C55.9483 31.6006 56.0212 31.6207 56.0845 31.6644C56.1478 31.7081 56.1986 31.7735 56.2304 31.852C56.2622 31.9306 56.2734 32.0187 56.2627 32.105V47.1465C56.2547 47.3429 56.2075 47.5341 56.125 47.7044C56.0426 47.8747 55.9273 48.019 55.7886 48.1255L40.9405 58.3587C40.8663 58.4076 40.7827 58.4328 40.6978 58.4317ZM55.9179 31.8833C55.8717 31.8857 55.8269 31.9035 55.7886 31.9346L40.9405 42.1516C40.8364 42.2347 40.7497 42.3452 40.6872 42.4747C40.6247 42.6041 40.5879 42.7489 40.5799 42.898V57.9395C40.5758 57.9776 40.5796 58.0163 40.5911 58.0521C40.6026 58.088 40.6213 58.1199 40.6456 58.145C40.6759 58.1581 40.7085 58.1618 40.7402 58.1556C40.772 58.1495 40.8019 58.1337 40.8271 58.1099L55.6752 47.8902C55.7794 47.8078 55.8662 47.6978 55.9287 47.5688C55.9913 47.4398 56.028 47.2952 56.0359 47.1465V32.105C56.0402 32.0669 56.0364 32.0282 56.0249 31.9923C56.0134 31.9563 55.9946 31.9245 55.9701 31.8995C55.9543 31.8885 55.9362 31.8829 55.9179 31.8833Z" fill="#FAFAFA"/>
<path id="Vector_39" d="M43.0911 45.4779C42.9616 45.4796 42.834 45.4404 42.7213 45.3644C42.5812 45.2498 42.4695 45.0925 42.3976 44.9089C42.3258 44.7253 42.2966 44.5221 42.313 44.3205C42.3373 43.801 42.4637 43.2956 42.682 42.8451C42.9003 42.3946 43.2043 42.0116 43.5697 41.727C43.7023 41.5984 43.8646 41.5211 44.0351 41.5052C44.2055 41.4893 44.376 41.5357 44.5237 41.6382C44.6715 41.7407 44.7896 41.8944 44.8623 42.0788C44.935 42.2633 44.9588 42.4698 44.9306 42.6709C44.9069 43.1905 44.7808 43.6961 44.5624 44.1467C44.3441 44.5973 44.0397 44.9802 43.674 45.2643C43.4981 45.3935 43.2975 45.4671 43.0911 45.4779ZM44.1617 41.7838C43.9919 41.7928 43.8269 41.8543 43.6831 41.9623C43.3521 42.2218 43.077 42.5704 42.88 42.9801C42.683 43.3897 42.5696 43.8489 42.5489 44.3205C42.5189 44.4752 42.5314 44.6373 42.5844 44.7829C42.6375 44.9286 42.7284 45.05 42.8438 45.1294C42.9591 45.2087 43.0928 45.2418 43.2252 45.2238C43.3575 45.2057 43.4814 45.1374 43.5787 45.029C43.9096 44.7694 44.1846 44.4207 44.3816 44.0111C44.5786 43.6015 44.6921 43.1424 44.7129 42.6709C44.7285 42.5166 44.7094 42.3602 44.6576 42.2176C44.6057 42.075 44.5231 41.9515 44.418 41.8596C44.3401 41.8066 44.2514 41.7803 44.1617 41.7838Z" fill="#FAFAFA"/>
<path id="Vector_40" d="M40.4662 57.3012C40.4498 57.297 40.4344 57.2887 40.4208 57.2769C40.4076 57.2689 40.3958 57.2578 40.3862 57.2443C40.3766 57.2308 40.3694 57.2152 40.365 57.1983C40.3605 57.1814 40.359 57.1636 40.3604 57.146C40.3618 57.1284 40.3661 57.1113 40.3732 57.0957L44.7691 46.8057C44.8352 46.65 44.9311 46.515 45.049 46.4116C45.1669 46.3082 45.3035 46.2393 45.4478 46.2103C45.5922 46.1814 45.7402 46.1933 45.88 46.245C46.0197 46.2967 46.1474 46.3869 46.2526 46.5082L50.5986 51.495C50.6091 51.5074 50.6175 51.5221 50.6232 51.5383C50.629 51.5546 50.6319 51.572 50.6319 51.5897C50.6319 51.6073 50.629 51.6248 50.6232 51.641C50.6175 51.6573 50.6091 51.672 50.5986 51.6843C50.588 51.697 50.5755 51.7071 50.5617 51.7139C50.5478 51.7208 50.533 51.7243 50.518 51.7243C50.5031 51.7243 50.4882 51.7208 50.4744 51.7139C50.4606 51.7071 50.4481 51.697 50.4375 51.6843L46.0915 46.7111C46.0117 46.6198 45.9151 46.5521 45.8094 46.5133C45.7037 46.4745 45.5919 46.4656 45.4829 46.4874C45.3738 46.5092 45.2705 46.5611 45.1813 46.6389C45.092 46.7167 45.0192 46.8182 44.9687 46.9355L40.5728 57.2282C40.5626 57.2511 40.5472 57.2701 40.5283 57.283C40.5095 57.2959 40.4879 57.3022 40.4662 57.3012Z" fill="#FAFAFA"/>
<path id="Vector_41" d="M48.3074 49.2045C48.2925 49.2083 48.277 49.2083 48.262 49.2045C48.2349 49.1902 48.2135 49.1638 48.2024 49.1309C48.1914 49.0981 48.1916 49.0614 48.2031 49.0287L51.6055 39.6501C51.6663 39.4796 51.7627 39.3307 51.8856 39.2174C52.0086 39.1042 52.1538 39.0305 52.3075 39.0033C52.4611 38.9762 52.618 38.9966 52.7632 39.0624C52.9084 39.1283 53.0369 39.2375 53.1366 39.3796L56.2305 43.8391C56.2402 43.8525 56.2476 43.868 56.2522 43.8849C56.2568 43.9017 56.2585 43.9195 56.2572 43.9372C56.2559 43.9548 56.2517 43.972 56.2448 43.9876C56.2379 44.0033 56.2284 44.0172 56.2169 44.0284C56.1961 44.0478 56.1703 44.0581 56.1439 44.0576C56.1175 44.0571 56.092 44.0458 56.0717 44.0257L52.9778 39.5662C52.9036 39.4589 52.8076 39.3762 52.6989 39.3259C52.5901 39.2756 52.4724 39.2594 52.357 39.2789C52.2415 39.2985 52.1322 39.3531 52.0395 39.4375C51.9469 39.5219 51.8739 39.6333 51.8278 39.7609L48.4254 49.1369C48.414 49.1613 48.3965 49.1809 48.3754 49.193C48.3543 49.2051 48.3305 49.2091 48.3074 49.2045Z" fill="#FAFAFA"/>
<g id="Group">
<path id="Vector_42" d="M59.4419 25.2577C58.741 25.2577 58.2715 24.7574 58.2715 24.0137L58.3327 19.3244C58.3327 18.0452 58.3327 16.1035 59.5304 15.2679C59.7778 15.0805 60.063 14.976 60.356 14.9653C60.6491 14.9546 60.9391 15.0382 61.1957 15.2072C61.4523 15.3762 61.666 15.6244 61.8144 15.9258C61.9628 16.2272 62.0404 16.5707 62.0391 16.9202C62.0391 17.2961 62.0277 17.7558 62.0096 18.2886C62.0084 18.3421 61.9983 18.3948 61.9798 18.4436C61.9612 18.4923 61.9347 18.5362 61.9017 18.5725C61.8687 18.6088 61.8299 18.6368 61.7877 18.655C61.7454 18.6731 61.7006 18.6809 61.6557 18.678C61.611 18.6756 61.5672 18.6627 61.5267 18.64C61.4862 18.6174 61.4498 18.5854 61.4197 18.5459C61.3896 18.5065 61.3663 18.4604 61.3511 18.4102C61.3359 18.36 61.3292 18.3067 61.3314 18.2534C61.3473 17.7423 61.3586 17.2799 61.3586 16.9202C61.3601 16.713 61.314 16.5092 61.2253 16.331C61.1366 16.1527 61.0087 16.0068 60.8554 15.909C60.7021 15.8113 60.5294 15.7653 60.3558 15.7763C60.1822 15.7872 60.0144 15.8545 59.8706 15.971C59.079 16.5119 59.0132 17.864 59.0132 19.319L58.952 24.0137C58.952 24.3652 59.2173 24.441 59.4419 24.441C59.812 24.4305 60.1642 24.2488 60.4241 23.9344C60.684 23.6201 60.8312 23.1975 60.8346 22.7562L60.8097 20.9037C60.8097 20.7961 60.8455 20.6929 60.9093 20.6169C60.9731 20.5408 61.0597 20.498 61.1499 20.498C61.2402 20.498 61.3267 20.5408 61.3905 20.6169C61.4543 20.6929 61.4902 20.7961 61.4902 20.9037L61.5151 22.7589C61.5169 23.4176 61.2998 24.0503 60.9113 24.5186C60.5227 24.9869 59.9944 25.2527 59.4419 25.2577Z" fill="#0D8BC9"/>
</g>
</g>
<g id="Photo  inject 1">
<path id="Vector_43" d="M64.5503 54.0804L40.8855 70.3713C40.7636 70.4657 40.6621 70.593 40.5892 70.7429C40.5163 70.8928 40.474 71.061 40.4658 71.234V71.4314C40.4739 71.6048 40.5161 71.7735 40.589 71.9238C40.6619 72.0742 40.7634 72.2019 40.8855 72.2968L60.6308 85.8888C60.7604 85.9674 60.9038 86.0084 61.0492 86.0084C61.1947 86.0084 61.3381 85.9674 61.4677 85.8888L85.1326 69.5979C85.2545 69.5034 85.3559 69.3761 85.4288 69.2263C85.5017 69.0764 85.544 68.9082 85.5522 68.7352V68.5351C85.544 68.3621 85.5017 68.1938 85.4288 68.044C85.3559 67.8941 85.2545 67.7668 85.1326 67.6724L65.3873 54.0804C65.2577 54.0018 65.1143 53.9608 64.9688 53.9608C64.8234 53.9608 64.68 54.0018 64.5503 54.0804Z" fill="#455A64"/>
<path id="Vector_44" d="M40.4653 71.2338V71.4312C40.4734 71.6046 40.5156 71.7733 40.5885 71.9236C40.6614 72.074 40.7629 72.2017 40.885 72.2966L60.6303 85.8885C60.7588 85.9693 60.9023 86.0102 61.0476 86.0075V83.4763L41.4452 69.9871L40.885 70.3738C40.7634 70.4679 40.6621 70.5948 40.5892 70.7442C40.5163 70.8936 40.4739 71.0612 40.4653 71.2338Z" fill="#263238"/>
<path id="Vector_45" d="M40.8849 70.3713L64.5498 54.0804C64.6794 54.0018 64.8228 53.9608 64.9683 53.9608C65.1137 53.9608 65.2571 54.0018 65.3868 54.0804L85.1321 67.6724C85.183 67.6922 85.2275 67.7307 85.259 67.7824C85.2905 67.8342 85.3075 67.8965 85.3075 67.9604C85.3075 68.0243 85.2905 68.0866 85.259 68.1384C85.2275 68.1901 85.183 68.2286 85.1321 68.2484L61.4672 84.5393C61.3375 84.6179 61.1941 84.6589 61.0487 84.6589C60.9032 84.6589 60.7598 84.6179 60.6302 84.5393L40.8849 70.9473C40.8339 70.9276 40.7895 70.889 40.758 70.8373C40.7264 70.7856 40.7095 70.7233 40.7095 70.6593C40.7095 70.5954 40.7264 70.5331 40.758 70.4814C40.7895 70.4296 40.8339 70.3911 40.8849 70.3713Z" fill="#37474F"/>
<path id="Vector_46" d="M43.8209 70.9472L59.1567 81.4941C59.2857 81.5737 59.4288 81.6153 59.5741 81.6153C59.7193 81.6153 59.8624 81.5737 59.9914 81.4941L80.7189 67.2287C80.7699 67.2089 80.8143 67.1704 80.8458 67.1187C80.8773 67.0669 80.8943 67.0046 80.8943 66.9407C80.8943 66.8768 80.8773 66.8145 80.8458 66.7627C80.8143 66.711 80.7699 66.6725 80.7189 66.6527L65.3831 56.1058C65.2531 56.0284 65.1099 55.9882 64.9646 55.9882C64.8193 55.9882 64.6761 56.0284 64.5461 56.1058L43.8209 70.3712C43.7699 70.3909 43.7255 70.4295 43.694 70.4812C43.6625 70.5329 43.6455 70.5952 43.6455 70.6592C43.6455 70.7231 43.6625 70.7854 43.694 70.8371C43.7255 70.8889 43.7699 70.9274 43.8209 70.9472Z" fill="white"/>
<path id="Vector_47" d="M48.5512 68.7161C49.6332 67.9724 51.3888 67.9724 52.4708 68.7161C53.5528 69.4598 53.555 70.6686 52.4708 71.4204C51.3866 72.1722 49.6332 72.1641 48.5512 71.4204C47.4693 70.6767 47.4693 69.4625 48.5512 68.7161Z" fill="#0D8BC9"/>
<path id="Vector_48" d="M80.7216 66.6608L76.2395 63.5752L62.6299 62.0635C62.4643 62.0451 62.2976 62.0778 62.1457 62.1583C61.9938 62.2388 61.8618 62.3645 61.7623 62.5233C61.6629 62.682 61.5992 62.8686 61.5776 63.0651C61.5559 63.2616 61.5769 63.4614 61.6386 63.6455L63.9886 70.6578L56.5033 70.1494C56.3573 70.139 56.2113 70.1682 56.0761 70.2347C55.9409 70.3012 55.8201 70.4033 55.7228 70.5334C55.6255 70.6635 55.5541 70.8182 55.5141 70.9859C55.474 71.1536 55.4664 71.3299 55.4916 71.5016L56.6439 79.7741L59.1662 81.5103C59.2952 81.59 59.4383 81.6315 59.5836 81.6315C59.7288 81.6315 59.872 81.59 60.0009 81.5103L80.7284 67.245C80.7819 67.2265 80.8288 67.1876 80.8619 67.1343C80.8951 67.081 80.9126 67.0162 80.9118 66.9498C80.911 66.8834 80.892 66.8192 80.8576 66.767C80.8233 66.7148 80.7755 66.6775 80.7216 66.6608Z" fill="#0D8BC9"/>
</g>
<g id="Boxes  inject 1">
<path id="Vector_49" d="M80.6509 47.0463V36.2506L92.4119 28.1565V38.9495L80.6509 47.0463Z" fill="#EBEBEB"/>
<path id="Vector_50" d="M80.6512 36.2507L65.9482 26.1311V36.9268L80.6512 47.0464V36.2507Z" fill="#E6E6E6"/>
<path id="Vector_51" d="M80.651 36.2506L92.7613 27.9131L77.7091 17.5501L65.6011 25.8903L80.651 36.2506Z" fill="#F0F0F0"/>
<path id="Vector_52" d="M80.6509 36.2507V38.9496L92.7612 30.6148V27.9132L80.6509 36.2507Z" fill="#EBEBEB"/>
<path id="Vector_53" d="M80.6509 38.9496L92.4119 30.8556V31.4478L80.6509 39.5446V38.9496Z" fill="#E6E6E6"/>
<path id="Vector_54" d="M65.6011 25.8904L80.651 36.2507V38.9497L65.6011 28.5894V25.8904Z" fill="#EBEBEB"/>
<g id="Vector_55" style="mix-blend-mode:multiply" opacity="0.5">
<path d="M80.6512 38.9495L65.9482 28.8299V29.4248L80.6512 39.5445V38.9495Z" fill="#E0E0E0"/>
</g>
<path id="Vector_56" d="M84.524 37.8923L88.5411 35.1257C88.7135 35.0067 88.8541 35.1041 88.8541 35.3421V38.1735C88.8484 38.3034 88.8171 38.4299 88.7627 38.5427C88.7083 38.6554 88.6324 38.7513 88.5411 38.8226L84.524 41.5918C84.3493 41.7108 84.2109 41.6161 84.2109 41.3782V38.5386C84.2159 38.4089 84.2469 38.2824 84.3014 38.17C84.3559 38.0575 84.4322 37.9623 84.524 37.8923Z" fill="#E0E0E0"/>
<path id="Vector_57" d="M84.779 38.214L88.2812 35.8018C88.3969 35.7233 88.4921 35.7882 88.4921 35.9451V38.0761C88.4888 38.1631 88.4679 38.2479 88.4312 38.3233C88.3944 38.3986 88.343 38.4623 88.2812 38.5088L84.779 40.9211C84.6633 40.9995 84.5703 40.9211 84.5703 40.775V38.644C84.5737 38.5577 84.5945 38.4736 84.6308 38.3988C84.6671 38.3239 84.7179 38.2606 84.779 38.214Z" fill="white"/>
<path id="Vector_58" d="M80.6509 34.8957V24.1L92.4119 16.0032V26.7989L80.6509 34.8957Z" fill="#EBEBEB"/>
<path id="Vector_59" d="M80.6512 24.1001L65.9482 13.9805V24.7762L80.6512 34.8958V24.1001Z" fill="#E6E6E6"/>
<path id="Vector_60" d="M80.651 24.1001L92.7613 15.7599L77.7091 5.39963L65.6011 13.7371L80.651 24.1001Z" fill="#F5F5F5"/>
<path id="Vector_61" d="M80.6509 24.1001V26.799L92.7612 18.4643V15.7599L80.6509 24.1001Z" fill="#EBEBEB"/>
<path id="Vector_62" d="M80.6509 26.7991L92.4119 18.7024V19.2973L80.6509 27.3914V26.7991Z" fill="#E6E6E6"/>
<path id="Vector_63" d="M65.6011 13.737L80.651 24.1V26.7989L65.6011 16.4386V13.737Z" fill="#EBEBEB"/>
<g id="Vector_64" style="mix-blend-mode:multiply" opacity="0.5">
<path d="M80.6512 26.799L65.9482 16.6794V17.2716L80.6512 27.3912V26.799Z" fill="#E0E0E0"/>
</g>
<path id="Vector_65" d="M84.524 25.7418L88.5411 22.9752C88.7135 22.8562 88.8541 22.9536 88.8541 23.1916V26.023C88.8478 26.1528 88.8163 26.279 88.762 26.3917C88.7076 26.5043 88.632 26.6003 88.5411 26.672L84.524 29.4359C84.3493 29.5549 84.2109 29.4575 84.2109 29.2195V26.3881C84.2159 26.2583 84.2469 26.1319 84.3014 26.0195C84.3559 25.907 84.4322 25.8117 84.524 25.7418Z" fill="#E0E0E0"/>
<path id="Vector_66" d="M84.779 26.0607L88.2812 23.6511C88.3969 23.5727 88.4921 23.6349 88.4921 23.7945V25.9066C88.4877 25.9933 88.4664 26.0776 88.4297 26.1527C88.3931 26.2279 88.3422 26.2917 88.2812 26.3393L84.779 28.7488C84.6633 28.8299 84.5703 28.765 84.5703 28.6055V26.4826C84.5748 26.3976 84.596 26.3152 84.6323 26.2419C84.6686 26.1686 84.7188 26.1065 84.779 26.0607Z" fill="white"/>
<path id="Vector_67" d="M91.7772 27.2345L80.6514 34.8958L66.5835 25.2062L66.2388 25.4496L80.6514 35.3366L92.1243 27.4724L91.7772 27.2345Z" fill="#E0E0E0"/>
</g>
</g>
</svg>
