<svg width="101" height="97" viewBox="0 0 101 97" fill="none" xmlns="http://www.w3.org/2000/svg">
<g id="image">
<g id="background simple">
<path id="Vector" d="M14.0169 13.4959C8.60306 25.4962 9.97933 40.1133 17.3616 51.0158C24.7439 61.9184 37.0227 68.9753 49.9311 71.5452C59.1484 73.3803 69.0632 73.0058 77.4847 68.8348C85.9062 64.6639 92.5278 56.2752 93.0334 46.8893C93.2253 43.3457 92.4716 39.582 90.1076 36.9347C86.3416 32.7146 79.8885 32.5601 74.2219 32.7357C68.5553 32.9112 62.114 32.7778 58.3058 28.5671C55.4011 25.3347 54.9775 20.6418 53.4374 16.5645C50.8229 9.63626 44.5196 4.22713 37.2755 2.69403C30.0313 1.16093 22.0756 3.56239 16.8818 8.84046C15.7702 10.2903 14.8102 11.8503 14.0169 13.4959Z" fill="#F3F2F8"/>
</g>
<g id="background complete">
<path id="Vector_2" d="M94.8434 15.3789L82.0146 15.4304L82.0797 31.6272L94.9084 31.5757L94.8434 15.3789Z" fill="white"/>
<path id="Vector_3" d="M82.0822 31.6216H82.3162H83.0044L85.6071 31.5982L94.9064 31.5326L94.8572 31.5841C94.8361 26.9591 94.8081 21.3861 94.78 15.3895L94.8408 15.4503L82.012 15.4971L82.0658 15.4433C82.0658 20.2439 82.0822 24.2861 82.0869 27.1323V30.4513C82.0869 30.8328 82.0869 31.1277 82.0869 31.3313C82.0869 31.4296 82.0869 31.5045 82.0869 31.5654C82.0869 31.6262 82.0869 31.6426 82.0869 31.6426C82.0869 31.6426 82.0869 31.6192 82.0869 31.5701V31.336C82.0869 31.1347 82.0869 30.8445 82.0869 30.4653C82.0869 29.6976 82.0705 28.5788 82.0588 27.1604C82.0401 24.3072 82.0143 20.2532 81.9839 15.4363V15.3801H82.0401L94.8689 15.3216H94.9298V15.3824C94.9508 21.3791 94.9696 26.9521 94.9859 31.5771V31.6286H94.9368H85.6025H82.988H82.3116C82.1594 31.6262 82.0822 31.6216 82.0822 31.6216Z" fill="#E0E0E0"/>
<path id="Vector_4" d="M89.4678 31.2221L87.689 31.2296L87.6908 31.6626L89.4696 31.6551L89.4678 31.2221Z" fill="#E0E0E0"/>
<path id="Vector_5" d="M90.4798 21.0654L86.5874 21.081L86.61 26.7008L90.5024 26.6851L90.4798 21.0654Z" fill="#E0E0E0"/>
<path id="Vector_6" d="M89.6534 15.1673L87.8745 15.1747L87.8761 15.5446L89.6549 15.5371L89.6534 15.1673Z" fill="#E0E0E0"/>
<path id="Vector_7" d="M22.7737 5.07443H11.1807V20.1924L22.7737 20.4826V5.07443Z" fill="#E0E0E0"/>
<path id="Vector_8" d="M22.0104 5.61276H11.8662V19.324L22.0104 19.6658V5.61276Z" fill="white"/>
<path id="Vector_9" d="M20.234 8.10318L13.5024 7.84805V17.4305H20.234V8.10318Z" fill="#E0E0E0"/>
<path id="Vector_10" d="M13.5024 17.4305L20.234 12.5082L13.5024 7.84805V17.4305Z" fill="#F5F5F5"/>
<path id="Vector_11" d="M13.5025 28.3283H5.58887V38.6457L13.5025 38.8447V28.3283Z" fill="#E0E0E0"/>
<path id="Vector_12" d="M12.9806 28.6958H6.05713V38.0535L12.9806 38.2876V28.6958Z" fill="white"/>
<path id="Vector_13" d="M11.7679 30.3974L7.17334 30.2219V36.7615H11.7679V30.3974Z" fill="#E0E0E0"/>
<path id="Vector_14" d="M7.17334 36.7615L11.7679 33.4028L7.17334 30.2219V36.7615Z" fill="#F5F5F5"/>
<path id="Vector_15" d="M81.7708 85.4532C81.4595 85.1863 80.7667 84.346 81.3027 83.3677C81.4993 83.0096 81.9159 82.8317 82.2928 82.6655C82.6814 82.536 83.0477 82.3473 83.3788 82.1061C83.9663 81.6075 84.1301 80.7813 84.5187 80.1166C84.9681 79.3535 85.806 78.7801 86.6884 78.8222C87.7019 78.8667 88.5468 79.6906 88.9284 80.6292C89.3099 81.5677 89.3239 82.6093 89.3333 83.6228C89.3333 84.1845 89.3122 84.8142 88.8979 85.1933C88.4837 85.5725 87.943 85.5468 87.428 85.5304L81.8949 85.3783" fill="#F5F5F5"/>
<path id="Vector_16" d="M91.4634 72.313H78.2319L80.617 86.4573C80.6662 86.7526 80.7984 87.0278 80.9982 87.2508C81.1979 87.4738 81.457 87.6353 81.7452 87.7165L81.792 87.7306C81.8318 87.7306 81.8692 87.754 81.909 87.761C81.998 87.777 82.0879 87.7872 82.1782 87.7914V87.8055L82.2437 87.7938H88.1397C88.2489 87.7943 88.3579 87.7841 88.4651 87.7633C88.8084 87.7105 89.125 87.5466 89.3663 87.2968C89.6077 87.047 89.7606 86.725 89.8015 86.38L90.9508 76.6337L91.0023 76.2452L91.4564 72.3855L91.4634 72.313ZM88.9659 81.336H87.6084L87.7465 77.2306H89.3194L88.9659 81.336ZM89.4505 77.2306H90.7518L90.2673 81.336H89.097L89.4505 77.2306ZM85.5721 85.8908L85.4901 82.3261H87.4446L87.3252 85.8908H85.5721ZM83.4655 82.3261H85.3661L85.448 85.8908H83.7441L83.4655 82.3261ZM83.613 85.8908H82.012C81.8622 84.9289 81.6633 83.6766 81.4503 82.3261H83.3227L83.613 85.8908ZM83.3789 81.3407L83.0653 77.2306H85.2444L85.3403 81.336L83.3789 81.3407ZM85.4644 81.3407L85.3708 77.2353H87.6131L87.475 81.3407H85.4644ZM85.3474 76.2499L85.2584 72.4487H87.7722L87.6482 76.2499H85.3474ZM85.2163 76.2499H82.981L82.6861 72.4487H85.1274L85.2163 76.2499ZM82.8499 76.2499H80.4906C80.4064 75.7256 80.3268 75.2294 80.2566 74.7823C80.0108 73.2446 79.9172 72.6758 79.8657 72.4417H82.5574L82.8499 76.2499ZM82.9272 77.2353L83.2478 81.3407H81.2934C81.2279 80.9241 81.16 80.5028 81.0945 80.0815C80.9423 79.1124 80.7879 78.1434 80.6428 77.2353H82.9272ZM81.16 81.3407H79.8844L79.1822 77.2353H80.5023C80.7247 78.4992 80.9377 79.9106 81.1624 81.336L81.16 81.3407ZM81.3168 82.3261C81.5111 83.5596 81.7031 84.7767 81.8763 85.8908H80.6498L80.0506 82.3261H81.3168ZM87.4563 85.8908L87.5733 82.3261H88.8793L88.5751 85.8908H87.4563ZM87.7793 76.2499L87.9057 72.4487H89.7313L89.4036 76.2499H87.7793ZM79.7393 72.4487C79.7908 72.7249 80.0342 74.2206 80.3572 76.2499H79.0277L78.3841 72.4441L79.7393 72.4487ZM89.7313 85.8908H88.7085L89.0151 82.3261H90.1503L89.7313 85.8908ZM90.8665 76.2499H89.5347L89.8624 72.4487H91.3159L90.8665 76.2499Z" fill="#E0E0E0"/>
</g>
<g id="Floor">
<path id="Vector_17" d="M100.5 87.8944C100.5 87.9435 78.1121 87.9833 50.5023 87.9833C22.8926 87.9833 0.5 87.9529 0.5 87.8944C0.5 87.8359 22.8832 87.8055 50.5023 87.8055C78.1215 87.8055 100.5 87.8452 100.5 87.8944Z" fill="#263238"/>
</g>
<g id="Sketches">
<path id="Vector_18" d="M47.4561 11.8709L32.9819 11.8153L32.9044 32.0123L47.3786 32.0678L47.4561 11.8709Z" fill="#F5F5F5"/>
<path id="Vector_19" d="M36.2272 25.9994H36.4425H37.0581H39.3636L39.3308 26.0345C39.3308 25.014 39.3191 23.7501 39.3121 22.3036V22.2568H39.3566L41.6153 22.217H41.6667V22.2685C41.6902 23.4201 41.7159 24.6887 41.744 26.0252L41.6855 25.969L44.9015 25.9901L44.8429 26.0533C44.8125 24.9602 44.7844 23.8227 44.754 22.6594C44.7306 21.7817 44.7072 20.9156 44.6861 20.0707L44.7095 20.1175L40.232 16.6323H40.3022L36.1663 20.3773L36.1804 20.3445C36.2014 22.0859 36.2178 23.495 36.2295 24.4757C36.2295 24.9602 36.2295 25.3394 36.2295 25.6039V25.9011C36.232 25.9354 36.232 25.9698 36.2295 26.0041C36.2262 25.973 36.2262 25.9416 36.2295 25.9105C36.2295 25.8403 36.2295 25.7443 36.2295 25.6226C36.2295 25.3581 36.2131 24.9836 36.1991 24.5014C36.178 23.516 36.1453 22.0976 36.1055 20.3469V20.3281L36.1195 20.3141L40.232 16.5481L40.2647 16.5176L40.3022 16.5457L44.7961 19.9958L44.8172 20.0145V20.0426C44.8375 20.8868 44.8601 21.7497 44.8851 22.6313C44.9132 23.8016 44.9436 24.9321 44.9717 26.0228V26.086H44.9132L41.6972 26.0579H41.6363V26.0018C41.6129 24.6653 41.5895 23.3967 41.5708 22.2568L41.6223 22.3083L39.3659 22.3387L39.4104 22.2919C39.4104 23.7384 39.4104 25.0023 39.4104 26.0228V26.0556H39.3776L37.0511 26.0299H36.4449H36.2904L36.2272 25.9994Z" fill="#263238"/>
<path id="Vector_20" d="M33.8515 12.452H34.748L37.3226 12.4708L46.6687 12.555H46.7155V12.6042C46.7155 17.7395 46.7155 24.1644 46.7155 31.1207V31.1815H46.5587L33.8843 31.2588H33.8281V17.6646C33.8281 16.0261 33.8281 14.7131 33.8281 13.8166C33.8281 13.3742 33.8281 13.0325 33.8281 12.7984C33.8281 12.6861 33.8281 12.5995 33.8281 12.5386C33.8281 12.4778 33.8281 12.452 33.8281 12.452C33.8281 12.452 33.8281 12.4848 33.8281 12.5457V12.8101C33.8281 13.0442 33.8281 13.3929 33.8281 13.84C33.8281 14.7388 33.8422 16.0472 33.8515 17.6997C33.8656 21.0046 33.8843 25.6858 33.9054 31.2026L33.8515 31.1464L46.5259 31.0598H46.6219L46.561 31.1207C46.561 24.1644 46.561 17.7395 46.561 12.6042L46.6102 12.6533L37.2969 12.5176L34.7222 12.4731H34.0435L33.8515 12.452Z" fill="#263238"/>
<path id="Vector_21" d="M44.8945 11.1038L47.942 14.1279L48.4757 13.4374L45.4095 10.6872L44.8945 11.1038Z" fill="#455A64"/>
<path id="Vector_22" d="M31.8408 30.2406L34.8859 33.2647L35.4219 32.5742L32.3534 29.8263L31.8408 30.2406Z" fill="#455A64"/>
<path id="Vector_23" d="M46.6616 30.1868C46.3908 30.2224 46.1179 30.2388 45.8448 30.2359C45.3392 30.25 44.6393 30.2617 43.8669 30.2687C43.1484 30.2687 42.4907 30.2687 41.9945 30.2687L42.0389 30.2219C42.0389 30.5098 42.0389 30.7415 42.0389 30.903C42.0443 30.9868 42.0396 31.0708 42.0249 31.1535C42.0019 31.0719 41.9901 30.9877 41.9898 30.903C41.9757 30.7438 41.9594 30.5121 41.9453 30.2266V30.1798H41.9945C42.4836 30.1657 43.139 30.154 43.8669 30.1493C44.6393 30.1493 45.3368 30.1493 45.8424 30.1493C46.1161 30.1397 46.39 30.1523 46.6616 30.1868Z" fill="#263238"/>
<path id="Vector_24" d="M65.6827 15.463L55.7715 17.5462L58.678 31.3743L68.5892 29.2911L65.6827 15.463Z" fill="#EBEBEB"/>
<path id="Vector_25" d="M60.0686 26.7812L60.106 26.7695L60.216 26.7437L60.6373 26.6478L62.2079 26.2967L62.1845 26.3365C62.03 25.6343 61.8381 24.7753 61.6204 23.7876V23.7431H61.6649L63.2026 23.385L63.2518 23.3733L63.2635 23.4224C63.4484 24.2065 63.6544 25.0608 63.8674 25.9807L63.8018 25.9386L66.0043 25.4705L65.9575 25.543C65.7796 24.801 65.5924 24.0263 65.4005 23.2352C65.2553 22.6383 65.1149 22.0508 64.9745 21.475L65.0072 21.5148L61.4331 19.8039L61.501 19.7875L59.2166 22.952V22.9169L59.8462 25.7256C59.9188 26.0556 59.9749 26.3154 60.0147 26.5003L60.0592 26.704C60.0645 26.7279 60.0684 26.7521 60.0709 26.7765C60.0709 26.7765 60.0709 26.7578 60.0522 26.7133C60.0335 26.6688 60.0218 26.5986 60.0007 26.519L59.8134 25.7607C59.6519 25.0843 59.4202 24.1223 59.1323 22.9286V22.9098V22.8934L61.398 19.7149L61.4238 19.6775L61.4659 19.6985L65.047 21.4001H65.0728V21.4282C65.2109 22.0017 65.3537 22.5985 65.4964 23.1884C65.6884 23.9795 65.8756 24.7542 66.0535 25.4962L66.0675 25.5571L66.0067 25.5711L63.8018 26.0228H63.748V25.969C63.5373 25.0585 63.336 24.1948 63.1535 23.4084L63.2167 23.4482L61.6766 23.8203L61.7117 23.7642C61.92 24.7542 62.1002 25.6203 62.2477 26.3201V26.3529H62.2149L60.6163 26.6712L60.1996 26.7508L60.0686 26.7812Z" fill="#263238"/>
<path id="Vector_26" d="M56.459 17.8612L56.6111 17.8237L57.0675 17.7254L58.8277 17.3579L65.2363 16.0402L65.2831 16.0285V16.0776L68.0169 28.7356L68.0286 28.7941L67.9701 28.8082L67.9045 28.8222L59.2443 30.7298H59.1881L59.1764 30.676C58.3689 26.8889 57.6855 23.6776 57.201 21.4048C56.9669 20.2814 56.7773 19.3896 56.6462 18.774C56.5854 18.4721 56.5362 18.2403 56.5035 18.0718C56.4894 17.9969 56.4777 17.9407 56.4683 17.8963C56.459 17.8518 56.4683 17.8354 56.4683 17.8378C56.4762 17.8581 56.4817 17.8793 56.4847 17.901C56.4964 17.9454 56.5105 18.0063 56.5292 18.0835C56.5667 18.2474 56.6181 18.4838 56.6884 18.7857C56.8241 19.4036 57.0231 20.2977 57.2735 21.4259C57.7697 23.6846 58.4696 26.8819 59.2958 30.6479L59.2279 30.6058L67.8882 28.6865L67.9537 28.6724L67.9069 28.745C66.8934 23.9865 65.9572 19.5909 65.2058 16.0753L65.2643 16.1127L58.8768 17.3743L57.0839 17.7348L56.6158 17.8237L56.459 17.8612Z" fill="#263238"/>
<path id="Vector_27" d="M63.8159 15.3193L66.3438 16.9413L66.6083 16.3913L64.1085 14.9612L63.8159 15.3193Z" fill="#455A64"/>
<path id="Vector_28" d="M57.688 30.3249L60.2158 31.9469L60.4803 31.3969L57.9782 29.9668L57.688 30.3249Z" fill="#455A64"/>
<path id="Vector_29" d="M67.8205 28.1177C67.6434 28.192 67.459 28.2477 67.2704 28.2839C66.9287 28.3705 66.4512 28.4828 65.9246 28.5998C65.433 28.7098 64.9883 28.8035 64.6466 28.869L64.6817 28.8128C64.7406 29.0224 64.7791 29.2372 64.7964 29.4542C64.709 29.2551 64.6408 29.0482 64.5928 28.8362L64.5811 28.7918L64.6279 28.7801C64.9579 28.6958 65.4073 28.5905 65.8988 28.4805C66.3903 28.3705 66.9053 28.2651 67.2517 28.1996C67.4378 28.1523 67.6285 28.1248 67.8205 28.1177Z" fill="#263238"/>
<path id="Vector_30" d="M58.3877 0.456414L56.96 9.04324L68.9409 11.0353L70.3686 2.44844L58.3877 0.456414Z" fill="#EBEBEB"/>
<path id="Vector_31" d="M61.3768 7.87145H61.4821L61.7653 7.90422L62.849 8.03998L62.8116 8.06806C62.8748 7.58356 62.952 6.98904 63.0456 6.30793V6.26346H63.0901L64.1574 6.38985H64.2089V6.44134C64.1457 6.98436 64.0755 7.58356 64.0029 8.21552L63.9538 8.15232L65.4682 8.37L65.4003 8.42384C65.4565 7.90656 65.5173 7.36822 65.5782 6.82052C65.625 6.40389 65.6718 5.99429 65.7163 5.59638L65.735 5.64554L63.8485 3.71922H63.9187L61.7208 5.20784L61.7396 5.17742C61.6319 5.98727 61.5453 6.64732 61.4821 7.11778C61.4493 7.34014 61.4259 7.51802 61.4072 7.65144C61.3885 7.78485 61.3768 7.84102 61.3744 7.84336C61.3727 7.78383 61.3766 7.72427 61.3861 7.66548L61.44 7.13884C61.4915 6.67072 61.564 5.98961 61.6553 5.16571V5.14699H61.6717L63.8531 3.63964L63.8929 3.61389L63.9257 3.64666L65.8169 5.56362L65.838 5.58468V5.61277C65.7935 6.01301 65.7467 6.42262 65.6999 6.83691C65.639 7.38695 65.5782 7.92529 65.5197 8.44256V8.50342H65.4564L63.9444 8.26935H63.8882V8.21318C63.9655 7.58356 64.0404 6.98436 64.1059 6.439L64.1504 6.49752L63.0854 6.36176L63.1369 6.32197C63.0386 7.00075 62.9543 7.59292 62.8841 8.07743V8.11019H62.8514L61.7536 7.93465L61.4704 7.88784C61.4386 7.88635 61.4072 7.88084 61.3768 7.87145Z" fill="#263238"/>
<path id="Vector_32" d="M57.4189 8.58767C57.4189 8.58767 57.4189 8.5432 57.4377 8.45426C57.4564 8.36532 57.4728 8.2202 57.5009 8.0587C57.5594 7.70293 57.646 7.19033 57.7537 6.53496C57.9877 5.2055 58.3037 3.30259 58.6899 0.99007V0.940918H58.7367L69.7376 2.7151H69.7961V2.77595V2.83213C69.3771 5.5168 68.9769 8.0704 68.6258 10.3642V10.4204H68.5719L60.5296 9.10261L58.2475 8.72343L57.6483 8.62044L57.4938 8.59236H57.4447H57.5032L57.6624 8.61576L58.2756 8.70704L60.5741 9.06048L68.5532 10.3174L68.49 10.3642C68.8458 8.06806 69.2413 5.51446 69.6603 2.82979V2.77361L69.7095 2.84149L58.7367 1.04625L58.7929 1.00645C58.3809 3.30259 58.0415 5.19146 57.8051 6.5139L57.5266 8.04231L57.4494 8.44724C57.433 8.53852 57.4189 8.58767 57.4189 8.58767Z" fill="#263238"/>
<path id="Vector_33" d="M57.6834 1.90291L59.7712 0.383859L59.4131 0L57.4868 1.5565L57.6834 1.90291Z" fill="#455A64"/>
<path id="Vector_34" d="M67.7855 11.4971L69.8733 9.97801L69.5152 9.59415L67.5889 11.1506L67.7855 11.4971Z" fill="#455A64"/>
<path id="Vector_35" d="M69.1806 2.69171C69.1572 3.25281 69.0923 3.8114 68.9863 4.3629C68.9185 4.79123 68.8529 5.17977 68.7991 5.47001L68.7593 5.41851C68.9457 5.43423 69.1295 5.47195 69.307 5.53086C69.1203 5.54516 68.9325 5.5373 68.7476 5.50746H68.7031V5.46065C68.7382 5.16807 68.7921 4.77719 68.8576 4.34886C68.9263 3.78959 69.0343 3.23585 69.1806 2.69171Z" fill="#263238"/>
</g>
<g id="Desk">
<path id="Vector_36" d="M35.925 51.4839C35.8829 51.718 35.925 87.8944 35.925 87.8944H34.3193V51.4839H35.925Z" fill="#455A64"/>
<path id="Vector_37" d="M63.7219 54.6648C63.6797 54.8989 63.7219 87.8289 63.7219 87.8289H62.1162V54.6648H63.7219Z" fill="#455A64"/>
<path id="Vector_38" d="M71.7971 48.6307C71.7573 48.8648 71.7971 87.8359 71.7971 87.8359H70.1914V48.6307H71.7971Z" fill="#455A64"/>
<path id="Vector_39" d="M71.2166 37.8944C71.3476 37.6767 71.2166 49.67 71.2166 49.67L69.7373 49.904L70.0884 38.0442L71.2166 37.8944Z" fill="#455A64"/>
<path id="Vector_40" d="M62.8652 55.3811C62.7552 55.7134 74.8023 33.3349 74.8023 33.3349L74.5799 32.3238L45.2826 30.6315L34.146 51.8304L62.8652 55.3811Z" fill="#263238"/>
<path id="Vector_41" d="M62.7435 54.5829C62.7154 54.0141 74.5799 32.2465 74.5799 32.2465L44.6787 29.4963L33.7036 50.9714L62.7435 54.5829Z" fill="#455A64"/>
<path id="Vector_42" d="M48.8477 48.4973L59.1604 49.574L65.7726 32.8714L50.9402 31.0458L43.5088 47.8326L48.8477 48.4973Z" fill="#F5F5F5"/>
<path id="Vector_43" d="M58.3151 35.308C58.3988 35.3228 58.481 35.3447 58.5609 35.3736C58.7918 35.4511 59.0096 35.5632 59.2069 35.7059C59.523 35.9295 59.7898 36.2155 59.991 36.5462C60.2623 36.9868 60.3936 37.4993 60.3678 38.0161C60.3344 38.6438 60.096 39.2433 59.6891 39.7224C59.4657 39.9928 59.1851 40.2103 58.8675 40.359C58.5445 40.5088 58.1958 40.6189 57.847 40.7429C57.6715 40.8061 57.4959 40.8693 57.3204 40.9419C57.2338 40.977 57.1495 41.0168 57.0629 41.0565L56.9365 41.1221C56.9016 41.1467 56.8695 41.1749 56.8406 41.2063C56.7086 41.3457 56.5975 41.5034 56.5105 41.6745C56.4216 41.843 56.3701 42.0396 56.2765 42.2269C56.1879 42.4257 56.0421 42.5936 55.8575 42.709C55.6573 42.8018 55.434 42.8327 55.2162 42.798L53.9522 42.6505C53.7393 42.6224 53.5263 42.592 53.3156 42.5499C53.0952 42.5171 52.8871 42.4275 52.7117 42.29C52.6653 42.2496 52.6295 42.1983 52.6074 42.1408C52.5854 42.0832 52.5778 42.0212 52.5853 41.96C52.6092 41.8527 52.6486 41.7494 52.7024 41.6534C52.7936 41.4662 52.892 41.2883 52.9903 41.1104L53.2805 40.5837L53.3484 40.4527L53.3811 40.3871C53.3883 40.3717 53.3923 40.355 53.3928 40.338C53.3937 40.2461 53.3811 40.1546 53.3554 40.0665C53.2594 39.6943 53.1213 39.3339 53.0535 38.964C52.9267 38.2493 53.0783 37.5132 53.4771 36.9067C53.8084 36.3766 54.2734 35.9431 54.8253 35.6497C55.2754 35.41 55.7643 35.2516 56.2694 35.1816C56.6519 35.1356 57.0385 35.1356 57.421 35.1816C57.7347 35.2167 57.9757 35.2589 58.1372 35.287L58.3222 35.3221C58.344 35.3237 58.3654 35.3292 58.3854 35.3385H58.3222L58.1349 35.315C57.9711 35.2963 57.7276 35.2612 57.4163 35.2331C57.0377 35.1956 56.656 35.2019 56.2788 35.2518C55.786 35.3329 55.3109 35.4984 54.8744 35.741C54.3395 36.0303 53.8906 36.4559 53.5731 36.9745C53.192 37.5594 53.0488 38.2677 53.1728 38.9547C53.2454 39.3151 53.3765 39.6709 53.4771 40.0524C53.5061 40.1528 53.5203 40.2569 53.5192 40.3614C53.5173 40.393 53.5093 40.424 53.4958 40.4527L53.4631 40.5206L53.3928 40.6516L53.1049 41.1642C53.0066 41.3421 52.9083 41.52 52.8194 41.7026C52.7724 41.788 52.737 41.8793 52.7141 41.9741C52.7073 42.0177 52.7122 42.0623 52.7282 42.1034C52.7443 42.1445 52.7709 42.1806 52.8054 42.2081C52.9645 42.3308 53.1521 42.4113 53.3507 42.4422C53.5543 42.4843 53.765 42.5147 53.978 42.5428L55.2372 42.6903C55.4316 42.721 55.6307 42.695 55.8107 42.6154C55.973 42.5113 56.1009 42.3614 56.1782 42.1847C56.2694 42.0115 56.3209 41.8149 56.4122 41.6323C56.5046 41.4521 56.622 41.2858 56.761 41.1385C56.7988 41.1001 56.8403 41.0656 56.885 41.0355L57.0161 40.9676L57.2829 40.8482C57.4608 40.7757 57.6387 40.7125 57.8142 40.6516C58.1653 40.5299 58.5164 40.4176 58.8277 40.2748C59.1329 40.1356 59.4025 39.9292 59.6165 39.6709C60.0112 39.2115 60.2469 38.6368 60.2883 38.0325C60.3175 37.5313 60.1951 37.033 59.9372 36.6024C59.7451 36.275 59.4888 35.99 59.1835 35.7644C58.9913 35.6202 58.7802 35.5028 58.5562 35.4157C58.3994 35.3361 58.3151 35.3127 58.3151 35.308Z" fill="#FF725E"/>
<path id="Vector_44" d="M56.2907 42.0536C56.2611 42.1603 56.2211 42.2638 56.1713 42.3626C56.087 42.5569 55.9606 42.8307 55.8155 43.1865C55.743 43.362 55.6681 43.554 55.5932 43.7646C55.5261 44.0015 55.4061 44.22 55.2421 44.4036C55.0371 44.5869 54.785 44.7093 54.5141 44.757C54.2328 44.8169 53.9447 44.8389 53.6575 44.8226C53.3705 44.8063 53.0871 44.7511 52.8149 44.6587C52.5561 44.5812 52.3168 44.4495 52.1127 44.2725C52.0167 44.189 51.9404 44.0852 51.8894 43.9687C51.8384 43.8521 51.8139 43.7256 51.8178 43.5984C51.8485 43.3866 51.9226 43.1834 52.0354 43.0016C52.2063 42.6833 52.3491 42.4164 52.4614 42.2105C52.5087 42.1105 52.5659 42.0156 52.6323 41.9272C52.5995 42.0327 52.5564 42.1346 52.5036 42.2315C52.4006 42.4422 52.2695 42.716 52.1127 43.0414C52.0107 43.2144 51.9446 43.4063 51.9184 43.6055C51.9185 43.7166 51.9427 43.8264 51.9891 43.9274C52.0356 44.0284 52.1033 44.1182 52.1876 44.1906C52.3847 44.3528 52.6123 44.4738 52.857 44.5464C53.3854 44.721 53.9505 44.7533 54.4954 44.64C54.7453 44.5976 54.979 44.4885 55.1719 44.324C55.3258 44.1529 55.4401 43.9499 55.5066 43.7295C55.5862 43.5212 55.6657 43.3269 55.7406 43.1537C55.8975 42.805 56.0355 42.5311 56.1315 42.3415C56.1764 42.2413 56.2297 42.145 56.2907 42.0536Z" fill="#FF725E"/>
<path id="Vector_45" d="M55.8528 43.1116C55.6697 43.1364 55.4845 43.1411 55.3004 43.1256C54.961 43.1256 54.4929 43.1022 53.9756 43.0765C53.4583 43.0507 52.9926 43.018 52.6532 42.9899C52.4684 42.9877 52.2845 42.9633 52.1055 42.9173C52.2877 42.8924 52.4722 42.8877 52.6555 42.9033C52.9949 42.9033 53.4654 42.9267 53.9826 42.9548C54.4999 42.9829 54.968 43.011 55.3051 43.039C55.4899 43.041 55.6738 43.0654 55.8528 43.1116Z" fill="#FF725E"/>
<path id="Vector_46" d="M55.4927 43.8583C54.8954 43.9167 54.2949 43.9355 53.6951 43.9144C53.0959 43.9342 52.4961 43.9123 51.8999 43.8489C52.4964 43.7904 53.0961 43.7716 53.6951 43.7927C54.2951 43.7745 54.8957 43.7963 55.4927 43.8583Z" fill="#FF725E"/>
<path id="Vector_47" d="M54.0624 44.7524C54.0741 44.7524 54.0437 44.8717 53.9009 44.9864C53.7074 45.1197 53.4717 45.1772 53.2385 45.1479C53.1106 45.1448 52.9844 45.1178 52.8664 45.0683C52.8134 45.0474 52.7653 45.0158 52.7251 44.9756C52.6848 44.9353 52.6533 44.8872 52.6323 44.8343C52.6178 44.7998 52.6104 44.7628 52.6104 44.7255C52.6104 44.6881 52.6178 44.6511 52.6323 44.6166C52.6557 44.5675 52.6815 44.5534 52.6885 44.5581C52.6691 44.6361 52.6757 44.7182 52.7072 44.7922C52.7657 44.9349 52.9834 45.0122 53.2338 45.0262C53.4416 45.0521 53.6524 45.0137 53.8377 44.9162C53.9899 44.8319 54.0413 44.7407 54.0624 44.7524Z" fill="#FF725E"/>
<path id="Vector_48" d="M54.5889 42.6575C54.6233 42.5613 54.6689 42.4693 54.7247 42.3837L55.1343 41.6651C55.3168 41.3562 55.5275 41.0004 55.7569 40.6072C55.8981 40.4245 55.9922 40.2099 56.0307 39.9822C56.022 39.8662 55.9705 39.7577 55.8861 39.6776C55.8017 39.5976 55.6906 39.5518 55.5743 39.5492C55.4526 39.5465 55.3317 39.5699 55.2198 39.618C55.108 39.666 55.0077 39.7376 54.9259 39.8277C54.7655 40.0026 54.6221 40.1922 54.4976 40.3942C54.2425 40.778 54.0295 41.1385 53.875 41.4451C53.7205 41.7517 53.5941 42.0092 53.5122 42.1871C53.4769 42.2822 53.4314 42.3732 53.3765 42.4586C53.3961 42.3588 53.4267 42.2614 53.4677 42.1683C53.538 41.9858 53.6456 41.7213 53.7978 41.4076C53.9783 41.0378 54.1807 40.6791 54.404 40.3333C54.5302 40.1221 54.6768 39.9238 54.8417 39.7411C54.9355 39.6386 55.0504 39.5575 55.1784 39.5033C55.3065 39.4492 55.4447 39.4233 55.5837 39.4275C55.7273 39.4348 55.8635 39.4938 55.9672 39.5936C56.0708 39.6934 56.135 39.8272 56.1477 39.9705C56.1437 40.1045 56.105 40.2351 56.0354 40.3497C55.9745 40.4597 55.9113 40.5557 55.8505 40.6563L55.2115 41.7096L54.7668 42.4118C54.7148 42.4988 54.6553 42.581 54.5889 42.6575Z" fill="#FF725E"/>
<path id="Vector_49" d="M55.1534 38.0746C55.2351 38.3088 55.2786 38.5546 55.2821 38.8025C55.3224 39.0467 55.3224 39.2957 55.2821 39.5398C55.2004 39.3057 55.1569 39.0599 55.1534 38.8119C55.1116 38.5679 55.1116 38.3186 55.1534 38.0746Z" fill="#FF725E"/>
<path id="Vector_50" d="M55.0432 37.9412C55.0573 37.9412 55.0432 37.9857 55.0713 38.0208C55.0994 38.0559 55.1322 38.0769 55.1696 38.0395C55.2071 38.002 55.193 37.9669 55.1532 37.9412C55.1134 37.9154 55.083 37.9248 55.0737 37.9108C55.0643 37.8967 55.0924 37.8476 55.1766 37.8593C55.2017 37.8623 55.2255 37.8717 55.246 37.8864C55.2664 37.9011 55.2828 37.9208 55.2937 37.9435C55.3063 37.9743 55.3096 38.0081 55.3031 38.0408C55.2966 38.0734 55.2806 38.1034 55.257 38.1269C55.2335 38.1504 55.2035 38.1665 55.1709 38.173C55.1383 38.1795 55.1044 38.1762 55.0737 38.1635C55.051 38.152 55.0314 38.1351 55.0168 38.1143C55.0021 38.0935 54.9927 38.0694 54.9894 38.0442C54.9777 37.9599 55.0339 37.9271 55.0432 37.9412Z" fill="#FF725E"/>
<path id="Vector_51" d="M57.5523 38.6691C57.3516 38.905 57.1146 39.1073 56.8501 39.2683C56.603 39.4588 56.3273 39.6089 56.0332 39.713C56.2641 39.5068 56.515 39.3241 56.7822 39.1677C57.0212 38.9756 57.2792 38.8085 57.5523 38.6691Z" fill="#FF725E"/>
<path id="Vector_52" d="M57.6272 38.4866C57.6132 38.4866 57.6647 38.4163 57.7676 38.4444C57.798 38.4547 57.8249 38.4734 57.8452 38.4982C57.8654 38.523 57.8783 38.5531 57.8823 38.5849C57.888 38.625 57.8807 38.6658 57.8615 38.7015C57.8422 38.7371 57.8121 38.7657 57.7755 38.783C57.7388 38.8002 57.6976 38.8053 57.6579 38.7975C57.6181 38.7896 57.582 38.7693 57.5547 38.7394C57.5311 38.7154 57.5159 38.6844 57.5113 38.6512C57.5066 38.6179 57.5128 38.584 57.5289 38.5544C57.5401 38.5347 57.5572 38.519 57.5777 38.5094C57.5982 38.4997 57.6213 38.4967 57.6436 38.5006C57.6717 38.5006 57.681 38.5264 57.6764 38.5334C57.6717 38.5404 57.6178 38.5334 57.6061 38.5919C57.6044 38.6047 57.606 38.6177 57.611 38.6297C57.6159 38.6416 57.6239 38.652 57.6342 38.6598C57.6466 38.6705 57.6617 38.6775 57.6778 38.68C57.694 38.6825 57.7105 38.6803 57.7255 38.6738C57.7396 38.6666 57.7513 38.6555 57.7592 38.6418C57.7671 38.6281 57.7708 38.6124 57.77 38.5966C57.7709 38.5822 57.7679 38.5679 57.7613 38.5551C57.7547 38.5424 57.7447 38.5316 57.7325 38.524C57.6834 38.4889 57.6342 38.503 57.6272 38.4866Z" fill="#FF725E"/>
<path id="Vector_53" d="M57.606 38.5123C56.8019 38.4236 56.0085 38.2558 55.2373 38.0114C56.042 38.0965 56.8358 38.2643 57.606 38.5123Z" fill="#FF725E"/>
<path id="Vector_54" d="M50.1209 41.3749C50.135 41.4076 49.9337 41.52 49.6762 41.63C49.5244 41.7137 49.3555 41.7617 49.1823 41.7704C49.1683 41.74 49.3696 41.6253 49.627 41.5177C49.7786 41.4328 49.9475 41.384 50.1209 41.3749Z" fill="#263238"/>
<path id="Vector_55" d="M52.8896 34.1377C52.9224 34.1518 51.8714 36.607 50.549 39.6194C49.2266 42.6318 48.1195 45.066 48.089 45.0543C48.0586 45.0426 49.1095 42.585 50.4296 39.5703C51.7497 36.5556 52.8709 34.119 52.8896 34.1377Z" fill="#263238"/>
<path id="Vector_56" d="M57.7864 34.5169C57.8168 34.5309 56.7097 37.1126 55.3147 40.2818C53.9197 43.451 52.7611 46.0116 52.74 45.9976C52.719 45.9835 53.8144 43.4042 55.2117 40.2327C56.6091 37.0611 57.7466 34.5029 57.7864 34.5169Z" fill="#263238"/>
<path id="Vector_57" d="M56.2298 45.485C56.2298 45.5177 54.3222 45.3071 51.9793 45.0169C49.6363 44.7266 47.7404 44.4575 47.7451 44.4247C47.7498 44.3919 49.6504 44.6002 51.9957 44.8928C54.341 45.1854 56.2345 45.4499 56.2298 45.485Z" fill="#263238"/>
<path id="Vector_58" d="M57.5525 42.5709C57.4398 42.5767 57.3268 42.5704 57.2154 42.5522L56.3049 42.4586C55.5349 42.372 54.4746 42.2456 53.3019 42.1005C52.1293 41.9553 51.0713 41.8126 50.3036 41.7072L49.3978 41.5738C49.2854 41.561 49.1743 41.5391 49.0654 41.5083C49.1781 41.5025 49.2911 41.5088 49.4025 41.527L50.3153 41.6206C51.083 41.7072 52.1457 41.8313 53.3183 41.9788C54.491 42.1262 55.5489 42.2643 56.3143 42.372L57.2224 42.5054C57.3342 42.5169 57.4447 42.5388 57.5525 42.5709Z" fill="#263238"/>
<path id="Vector_59" d="M60.8012 35.5795C60.6886 35.5855 60.5756 35.58 60.4641 35.5632L59.5536 35.4672C58.7836 35.3829 57.7209 35.2565 56.5506 35.1091C55.3803 34.9616 54.3177 34.8235 53.5523 34.7159L52.6372 34.5871C52.5251 34.5771 52.4145 34.5551 52.3071 34.5216C52.4198 34.5189 52.5325 34.5251 52.6442 34.5403L53.5547 34.6339C54.3247 34.7205 55.3874 34.8469 56.5577 34.992C57.728 35.1372 58.7906 35.2799 59.556 35.3876L60.4641 35.5187C60.578 35.5297 60.6907 35.5501 60.8012 35.5795Z" fill="#263238"/>
<path id="Vector_60" d="M53.1707 34.3039C53.1895 34.332 53.0303 34.4537 52.8173 34.5754C52.6043 34.6971 52.4194 34.7697 52.403 34.7416C52.3866 34.7135 52.5435 34.5895 52.7565 34.4701C52.9695 34.3507 53.1544 34.2735 53.1707 34.3039Z" fill="#263238"/>
<path id="Vector_61" d="M48.8919 44.2515C48.74 44.3835 48.5622 44.4824 48.3699 44.5417C48.193 44.6376 47.999 44.6981 47.7988 44.7196C47.9513 44.5885 48.1289 44.4897 48.3208 44.4294C48.4976 44.3331 48.6917 44.2727 48.8919 44.2515Z" fill="#263238"/>
<path id="Vector_62" d="M53.2666 45.3211C53.27 45.1889 53.2896 45.0576 53.3251 44.9302L53.3672 44.9981C53.2596 44.9981 53.1332 44.9724 52.9998 44.9536L53.0653 44.9115C53.0208 45.0473 52.9787 45.1737 52.9412 45.279L52.8991 45.2111C53.0256 45.2304 53.1491 45.2658 53.2666 45.3164C53.2806 45.3328 53.1332 45.3375 52.8827 45.3164H52.8242L52.8406 45.2532C52.8687 45.1456 52.9061 45.0192 52.9483 44.8811L52.9647 44.8319H53.0162L53.3836 44.8928L53.4445 44.9068L53.4258 44.9607C53.3392 45.2041 53.276 45.3399 53.2666 45.3211Z" fill="#263238"/>
<path id="Vector_63" d="M62.8652 55.3811L74.8023 48.2797H66.7389L62.8652 55.3811Z" fill="#263238"/>
<path id="Vector_64" d="M63.3521 31.9844L65.9595 35.1863L66.458 34.222L64.4077 31.6684L63.3521 31.9844Z" fill="#263238"/>
<path id="Vector_65" d="M74.8025 48.2797V47.0204L67.5045 46.8659L64.2183 52.9304L74.8025 48.2797Z" fill="#263238"/>
</g>
<g id="Character">
<path id="Vector_66" d="M43.1718 73.3148H41.8892V96.2691H43.1718V73.3148Z" fill="#455A64"/>
<path id="Vector_67" d="M52.6373 71.5008C52.6373 73.193 48.4031 74.5623 43.1766 74.5623C37.95 74.5623 33.7158 73.193 33.7158 71.5008C33.7158 70.9718 33.4818 69.8624 33.8188 68.7974C34.4016 67.0255 39.5884 68.4416 43.1812 68.4416C47.0339 68.4416 51.8906 67.7394 52.5062 69.4434C52.773 70.2135 52.6373 71.0584 52.6373 71.5008Z" fill="#263238"/>
<path id="Vector_68" d="M43.1717 72.313C48.3967 72.313 52.6324 70.9423 52.6324 69.2515C52.6324 67.5606 48.3967 66.1899 43.1717 66.1899C37.9466 66.1899 33.7109 67.5606 33.7109 69.2515C33.7109 70.9423 37.9466 72.313 43.1717 72.313Z" fill="#455A64"/>
<path id="Vector_69" d="M43.1486 84.7252C43.1486 84.7252 50.3179 84.2337 50.6385 94.2304H49.4682C49.4682 94.2304 50.0534 86.0266 43.1299 85.7925V84.9101" fill="#455A64"/>
<path id="Vector_70" d="M42.2917 84.7252C42.2917 84.7252 35.1224 84.2337 34.8018 94.2304H35.9721C35.9721 94.2304 35.3869 86.0266 42.3104 85.7925V84.9101" fill="#455A64"/>
<path id="Vector_71" d="M59.1192 33.5216L47.9062 34.994L48.0763 36.2894L59.2893 34.817L59.1192 33.5216Z" fill="#FF725E"/>
<path id="Vector_72" d="M51.4672 84.4046L52.5579 82.1225L48.2956 80.051L46.6572 83.3723L46.9124 83.5175C48.0569 84.1564 52.7756 86.6773 53.679 86.8201C54.6878 86.9816 51.4672 84.4046 51.4672 84.4046Z" fill="#FF725E"/>
<g id="Group" opacity="0.3">
<path id="Vector_73" opacity="0.3" d="M48.2203 84.0909C48.3318 83.7015 48.2951 83.2845 48.1173 82.9206C47.9449 82.5591 47.6435 82.2752 47.2724 82.1248L46.6919 83.3162L48.2203 84.0909Z" fill="white"/>
</g>
<path id="Vector_74" opacity="0.3" d="M53.0069 85.727C53.0069 85.727 54.0976 86.7101 53.8378 86.8411C53.578 86.9722 48.7119 84.6058 46.6592 83.3723L46.7107 83.2811L52.3632 86.0898C52.3632 86.0898 52.7541 85.6123 53.0069 85.727Z" fill="white"/>
<path id="Vector_75" d="M46.6455 83.2459L46.7157 83.2904L46.9194 83.4051L47.6777 83.8147C48.3214 84.1564 49.2155 84.6175 50.2126 85.1044C51.2097 85.5912 52.1249 86.0125 52.7873 86.3098L53.5784 86.6539L53.7937 86.7451L53.871 86.7709L53.7984 86.7334L53.5877 86.6328L52.806 86.2723C52.1436 85.9657 51.2331 85.5397 50.2313 85.0529C49.2295 84.566 48.3378 84.1166 47.6894 83.7796L46.924 83.384L46.7134 83.2787C46.6922 83.265 46.6694 83.254 46.6455 83.2459Z" fill="#263238"/>
<path id="Vector_76" d="M52.3281 86.1577C52.4255 86.0464 52.5346 85.9459 52.6535 85.8581C52.7828 85.7862 52.9203 85.7304 53.0631 85.6919C52.9066 85.6746 52.7494 85.7172 52.623 85.8112C52.4857 85.8868 52.3808 86.01 52.3281 86.1577Z" fill="#263238"/>
<path id="Vector_77" d="M51.3825 84.9101C51.3825 84.9242 51.4878 84.8797 51.5955 84.8118C51.7031 84.7439 51.7897 84.6784 51.7804 84.6644C51.7027 84.6801 51.6297 84.7137 51.5674 84.7627C51.4667 84.8282 51.3731 84.8937 51.3825 84.9101Z" fill="#263238"/>
<path id="Vector_78" d="M51.1276 84.5567C51.1276 84.5731 51.2213 84.5567 51.3266 84.5309C51.4319 84.5052 51.5138 84.463 51.5092 84.449C51.5045 84.435 51.4155 84.449 51.3102 84.4748C51.2049 84.5005 51.123 84.5426 51.1276 84.5567Z" fill="#263238"/>
<path id="Vector_79" d="M51.104 84.0488C51.104 84.0628 51.1906 84.1237 51.3123 84.1869C51.3829 84.2323 51.463 84.2611 51.5464 84.2711C51.5464 84.2571 51.4598 84.1962 51.3381 84.1354C51.2679 84.0886 51.1877 84.059 51.104 84.0488Z" fill="#263238"/>
<path id="Vector_80" d="M51.1671 83.7398C51.1554 83.7515 51.242 83.8522 51.3801 83.9341C51.46 83.9915 51.5555 84.0233 51.6539 84.0254C51.5768 83.9706 51.4945 83.9235 51.4082 83.8849C51.3324 83.8292 51.2517 83.7807 51.1671 83.7398Z" fill="#263238"/>
<path id="Vector_81" d="M51.7008 84.6058C51.7834 84.6661 51.8762 84.7113 51.9746 84.7392C52.0799 84.7742 52.1879 84.8001 52.2976 84.8165C52.3645 84.8238 52.432 84.8238 52.4989 84.8165C52.5405 84.8128 52.5794 84.7945 52.6089 84.765C52.6209 84.7452 52.6272 84.7226 52.6272 84.6995C52.6272 84.6763 52.6209 84.6537 52.6089 84.6339C52.5287 84.5298 52.4143 84.4572 52.2859 84.4289C52.1575 84.4007 52.0233 84.4186 51.9067 84.4794C51.8377 84.5123 51.7769 84.5603 51.7288 84.6199C51.6937 84.6597 51.682 84.6877 51.6844 84.6901C51.7519 84.6194 51.831 84.5608 51.9184 84.5169C52.0154 84.4739 52.1227 84.46 52.2274 84.4771C52.2892 84.4851 52.3488 84.5054 52.4026 84.5368C52.4565 84.5681 52.5035 84.6099 52.541 84.6597C52.5691 84.7135 52.527 84.7556 52.4661 84.7603C52.4039 84.7673 52.3411 84.7673 52.2789 84.7603C52.172 84.7479 52.0663 84.7267 51.9629 84.6971C51.8178 84.648 51.7125 84.5988 51.7008 84.6058Z" fill="#263238"/>
<path id="Vector_82" d="M51.7734 84.655C51.7734 84.655 51.8483 84.6105 51.8974 84.4794C51.9227 84.4042 51.9299 84.324 51.9185 84.2454C51.9155 84.1935 51.8994 84.1433 51.8715 84.0994C51.8436 84.0556 51.805 84.0196 51.7593 83.9949C51.7441 83.9911 51.7283 83.9903 51.7127 83.9925C51.6972 83.9948 51.6823 84.0001 51.6688 84.0081C51.6553 84.0162 51.6436 84.0268 51.6342 84.0394C51.6248 84.052 51.618 84.0663 51.6142 84.0815C51.5982 84.1281 51.5934 84.1778 51.6002 84.2267C51.6055 84.3066 51.6221 84.3854 51.6493 84.4607C51.6938 84.5871 51.7453 84.6526 51.7523 84.648C51.7593 84.6433 51.7219 84.5731 51.6868 84.449C51.6673 84.3772 51.6563 84.3034 51.654 84.229C51.654 84.1541 51.668 84.0371 51.7429 84.0581C51.8178 84.0792 51.8506 84.1869 51.867 84.2618C51.8826 84.3327 51.8826 84.4062 51.867 84.4771C51.8404 84.5387 51.8091 84.5982 51.7734 84.655Z" fill="#263238"/>
<path id="Vector_83" d="M47.3008 82.1224C47.3008 82.1224 47.4295 82.1693 47.6097 82.2863C47.846 82.4382 48.0362 82.6519 48.1598 82.9042C48.2783 83.1583 48.3245 83.4401 48.2932 83.7187C48.2698 83.9341 48.216 84.0605 48.2253 84.0628C48.2347 84.0651 48.2464 84.0347 48.2675 83.9762C48.299 83.8956 48.321 83.8115 48.333 83.7258C48.3794 83.4377 48.3372 83.1424 48.2117 82.879C48.0863 82.6156 47.8837 82.3966 47.6308 82.2512C47.5564 82.2079 47.478 82.1718 47.3967 82.1435C47.3359 82.1248 47.3008 82.1178 47.3008 82.1224Z" fill="#263238"/>
<path id="Vector_84" d="M48.6066 80.5636C48.4327 80.839 48.2763 81.1251 48.1385 81.4203C47.9833 81.7065 47.8458 82.002 47.7266 82.305C47.8987 82.0277 48.055 81.7409 48.1947 81.446C48.3489 81.1601 48.4864 80.8654 48.6066 80.5636Z" fill="#263238"/>
<path id="Vector_85" d="M48.958 83.9364C49.3308 84.2156 49.7511 84.425 50.1985 84.5543C50.1985 84.538 49.9177 84.4209 49.5759 84.2501C49.2342 84.0792 48.9674 83.9224 48.958 83.9364Z" fill="#263238"/>
<path id="Vector_86" d="M48.1245 83.5292C48.1081 83.5292 48.1245 83.5994 48.1245 83.6766C48.1245 83.7539 48.1104 83.817 48.1245 83.8241C48.1385 83.8311 48.1806 83.7679 48.183 83.679C48.1853 83.59 48.1385 83.5221 48.1245 83.5292Z" fill="#263238"/>
<path id="Vector_87" d="M48.0006 82.9838C47.9842 82.9838 48.0006 83.047 48.0123 83.1125C48.024 83.1781 48.0661 83.2272 48.0801 83.2225C48.0942 83.2179 48.0801 83.1593 48.0684 83.0938C48.0567 83.0283 48.0146 82.9791 48.0006 82.9838Z" fill="#263238"/>
<path id="Vector_88" d="M47.6377 82.5859C47.6377 82.6023 47.6892 82.628 47.7407 82.6819C47.7922 82.7357 47.8226 82.7895 47.839 82.7848C47.8554 82.7802 47.839 82.7029 47.7828 82.6397C47.7266 82.5765 47.64 82.5695 47.6377 82.5859Z" fill="#263238"/>
<path id="Vector_89" d="M47.357 82.3354C47.3453 82.3354 47.357 82.3799 47.3874 82.4104C47.4179 82.4408 47.4506 82.4572 47.4623 82.4478C47.474 82.4384 47.4623 82.4033 47.4296 82.3729C47.3968 82.3425 47.3687 82.3354 47.357 82.3354Z" fill="#263238"/>
<path id="Vector_90" d="M51.5865 86.7826L52.9581 84.655L48.9791 82.0616L46.9404 85.1512L47.1745 85.3291C48.2278 86.1062 52.5906 89.2028 53.4684 89.4579C54.4608 89.7528 51.5865 86.7826 51.5865 86.7826Z" fill="#FF725E"/>
<g id="Group_2" opacity="0.3">
<path id="Vector_91" opacity="0.3" d="M48.4103 86.0804C48.5696 85.7094 48.5862 85.2927 48.4571 84.9101C48.3365 84.5238 48.0739 84.1976 47.7222 83.9973L46.9966 85.1044L48.4103 86.0804Z" fill="white"/>
</g>
<path id="Vector_92" opacity="0.3" d="M52.953 88.2946C52.953 88.2946 53.9103 89.4088 53.6364 89.5071C53.3626 89.6054 48.8335 86.6422 46.9517 85.1582L47.0149 85.074L52.2672 88.5849C52.2672 88.5849 52.7142 88.1542 52.953 88.2946Z" fill="white"/>
<path id="Vector_93" d="M46.9541 85.0318L47.0173 85.0833L47.2069 85.2238L47.9091 85.727C48.5036 86.146 49.3322 86.7171 50.2614 87.3256C51.1906 87.9342 52.0449 88.4678 52.6652 88.8447L53.4072 89.2871L53.6108 89.4041C53.6335 89.4192 53.6579 89.4317 53.6833 89.4415C53.6622 89.4238 53.6395 89.4082 53.6155 89.3947L53.4189 89.2683L52.6886 88.8119C52.0707 88.4257 51.221 87.8874 50.2918 87.2788C49.3626 86.6703 48.5317 86.1085 47.9325 85.6919L47.2303 85.205L47.036 85.074C47.0113 85.0553 46.9836 85.0411 46.9541 85.0318Z" fill="#263238"/>
<path id="Vector_94" d="M52.2251 88.6387C52.3346 88.5389 52.4556 88.4525 52.5856 88.3812C52.7231 88.3279 52.8659 88.2895 53.0115 88.2665C52.8583 88.232 52.6977 88.2544 52.5598 88.3297C52.4137 88.3875 52.2944 88.4977 52.2251 88.6387Z" fill="#263238"/>
<path id="Vector_95" d="M51.4435 87.2788C51.526 87.2739 51.6061 87.2499 51.6776 87.2086C51.797 87.1548 51.8859 87.0986 51.8789 87.0845C51.7965 87.0894 51.7163 87.1135 51.6448 87.1547C51.5278 87.2086 51.4389 87.2648 51.4435 87.2788Z" fill="#263238"/>
<path id="Vector_96" d="M51.2329 86.8973C51.2329 86.9137 51.3242 86.9137 51.4319 86.8973C51.5395 86.8809 51.6285 86.8528 51.6261 86.8388C51.6238 86.8247 51.5325 86.8224 51.4248 86.8388C51.3172 86.8551 51.2329 86.8832 51.2329 86.8973Z" fill="#263238"/>
<path id="Vector_97" d="M51.2773 86.3917C51.2773 86.4034 51.3522 86.476 51.4669 86.5532C51.5318 86.6059 51.6066 86.6449 51.6869 86.6679C51.6869 86.6539 51.6121 86.5813 51.4974 86.5041C51.3827 86.4268 51.2844 86.3777 51.2773 86.3917Z" fill="#263238"/>
<path id="Vector_98" d="M51.3801 86.0804C51.3661 86.0804 51.4387 86.2021 51.5674 86.3004C51.6382 86.3676 51.7282 86.411 51.8249 86.4245C51.8249 86.4081 51.7219 86.3472 51.6025 86.2536C51.5328 86.1904 51.4585 86.1326 51.3801 86.0804Z" fill="#263238"/>
<path id="Vector_99" d="M51.8061 87.0167C51.8808 87.0859 51.9672 87.1414 52.0613 87.1805C52.1609 87.2297 52.2652 87.2689 52.3726 87.2975C52.4362 87.3189 52.5022 87.3322 52.5692 87.3373C52.6109 87.3381 52.6516 87.324 52.6839 87.2975C52.7 87.2812 52.7111 87.2607 52.7161 87.2384C52.7211 87.216 52.7196 87.1927 52.712 87.1711C52.645 87.061 52.5419 86.9774 52.4203 86.9347C52.2987 86.8921 52.166 86.8929 52.0449 86.9371C51.9724 86.9605 51.9061 86.9996 51.8506 87.0518C51.8108 87.0892 51.7944 87.115 51.7991 87.1173C51.8763 87.0555 51.9633 87.0072 52.0566 86.9745C52.1583 86.9452 52.2662 86.9452 52.3679 86.9745C52.4281 86.9902 52.4845 87.0178 52.534 87.0556C52.5834 87.0933 52.6248 87.1406 52.6558 87.1945C52.6768 87.2507 52.63 87.2882 52.5692 87.2858C52.5068 87.2797 52.445 87.2687 52.3843 87.2531C52.2794 87.2262 52.1769 87.191 52.0776 87.1477C51.9068 87.0752 51.8108 87.0167 51.8061 87.0167Z" fill="#263238"/>
<path id="Vector_100" d="M51.8625 87.0752C51.8625 87.0752 51.9444 87.04 52.0076 86.9183C52.0436 86.8456 52.062 86.7654 52.0614 86.6843C52.0642 86.6322 52.0539 86.5803 52.0314 86.5333C52.0089 86.4862 51.975 86.4456 51.9327 86.4151C51.9032 86.4043 51.8706 86.4053 51.8418 86.4179C51.813 86.4306 51.7902 86.4539 51.7782 86.483C51.7564 86.5265 51.7459 86.5748 51.7478 86.6234C51.7437 86.7019 51.75 86.7806 51.7665 86.8575C51.7766 86.9289 51.803 86.997 51.8437 87.0564C51.8437 87.0564 51.8227 86.9769 51.8063 86.8505C51.7978 86.7766 51.7978 86.702 51.8063 86.6281C51.8063 86.5509 51.8461 86.4385 51.9186 86.4689C51.9912 86.4994 52.0099 86.6094 52.0146 86.6866C52.0187 86.7593 52.0067 86.8321 51.9795 86.8996C51.947 86.9622 51.9077 87.0211 51.8625 87.0752Z" fill="#263238"/>
<path id="Vector_101" d="M47.7451 83.9996C47.7451 83.9996 47.8668 84.0628 48.033 84.2009C48.2485 84.3818 48.4103 84.6181 48.5011 84.8844C48.587 85.151 48.5976 85.4361 48.5316 85.7083C48.4801 85.9189 48.4122 86.036 48.4216 86.0406C48.4435 86.0175 48.4609 85.9905 48.473 85.9611C48.5135 85.8865 48.5464 85.8081 48.5714 85.727C48.6512 85.447 48.6455 85.1495 48.555 84.8727C48.4653 84.594 48.2931 84.3491 48.0611 84.1705C47.9922 84.1166 47.9176 84.0703 47.8387 84.0324C47.8096 84.0164 47.7779 84.0053 47.7451 83.9996Z" fill="#263238"/>
<path id="Vector_102" d="M49.2388 82.6187C49.0331 82.8704 48.8432 83.1346 48.67 83.4098C48.4813 83.6743 48.3078 83.9494 48.1504 84.2337C48.3555 83.982 48.5446 83.7178 48.7168 83.4425C48.9063 83.1781 49.0806 82.903 49.2388 82.6187Z" fill="#263238"/>
<path id="Vector_103" d="M49.1616 86.0078C49.3235 86.176 49.506 86.323 49.7046 86.4455C49.8922 86.5823 50.0968 86.6941 50.3132 86.7779C50.3132 86.7639 50.0534 86.6094 49.7351 86.3964C49.4167 86.1834 49.1733 85.9961 49.1616 86.0078Z" fill="#263238"/>
<path id="Vector_104" d="M48.3869 85.4976C48.3705 85.4976 48.3705 85.5678 48.3588 85.6451C48.3471 85.7223 48.3261 85.7832 48.3401 85.7902C48.3542 85.7972 48.4033 85.741 48.415 85.6521C48.4267 85.5632 48.401 85.4953 48.3869 85.4976Z" fill="#263238"/>
<path id="Vector_105" d="M48.3308 84.9429C48.3167 84.9429 48.3144 85.0037 48.3308 85.0716C48.3471 85.1395 48.3682 85.1933 48.3846 85.191C48.401 85.1886 48.401 85.1278 48.3846 85.0599C48.3682 84.992 48.3471 84.9382 48.3308 84.9429Z" fill="#263238"/>
<path id="Vector_106" d="M48.0215 84.5005C48.0215 84.5169 48.0683 84.5497 48.1128 84.6082C48.1572 84.6667 48.1806 84.7275 48.197 84.7252C48.2134 84.7229 48.2158 84.6456 48.1596 84.5731C48.1034 84.5005 48.0262 84.4865 48.0215 84.5005Z" fill="#263238"/>
<path id="Vector_107" d="M47.7757 84.2267C47.7616 84.2267 47.7757 84.2711 47.7967 84.3062C47.8178 84.3414 47.8506 84.3601 47.8646 84.3507C47.8787 84.3413 47.8646 84.3062 47.8436 84.2735C47.8225 84.2407 47.7874 84.2079 47.7757 84.2267Z" fill="#263238"/>
<path id="Vector_108" opacity="0.2" d="M47.9302 83.6766L51.9303 86.2536L52.1737 85.8768L48.1736 83.2225L47.9302 83.6766Z" fill="black"/>
<path id="Vector_109" d="M52.0334 66.0706L47.3545 81.4437L51.5044 83.054L57.5127 69.2515L52.0334 66.0706Z" fill="#263238"/>
<path id="Vector_110" d="M42.3199 69.8577C42.3199 69.8577 58.559 65.8131 59.0014 65.6165C59.0014 65.6165 60.8131 60.3712 57.0142 58.3864C53.398 56.4952 41.3813 62.8921 41.3813 62.8921L42.3199 69.8577Z" fill="#263238"/>
<path id="Vector_111" d="M37.1657 68.8138C39.0194 69.097 41.1072 69.75 42.315 69.8577C45.5918 70.1573 47.153 68.8161 49.8775 69.5464C49.8915 67.5569 49.7441 63.8704 49.7441 63.8704L34.584 61.8598C34.584 61.8598 34.8649 67.1426 37.1657 68.8138Z" fill="#263238"/>
<path id="Vector_112" d="M64.7756 68.561C65.2133 67.7465 65.5387 66.7775 65.3561 65.8529C64.9933 64.0155 62.7931 63.8142 60.497 63.5381C55.336 62.9155 48.6371 62.0331 48.6371 62.0331L49.8917 69.5487L56.003 69.9911L47.6494 82.8808L53.6063 86.8762L64.462 69.0876C64.5275 68.9846 64.5931 68.8746 64.6586 68.7646L64.7756 68.561Z" fill="#263238"/>
<path id="Vector_113" d="M60.0197 63.4795C59.8807 63.4842 59.7415 63.4795 59.6031 63.4655C59.3339 63.4491 58.9454 63.4187 58.4679 63.3719C57.5106 63.2829 56.1905 63.1238 54.737 62.9318C53.2834 62.7399 51.9657 62.569 51.0107 62.4637L49.8802 62.3326C49.7414 62.3244 49.6035 62.304 49.4683 62.2718C49.6073 62.2671 49.7465 62.2718 49.8849 62.2858C50.1541 62.3022 50.5426 62.3326 51.0201 62.3794C51.9774 62.4684 53.2975 62.6275 54.751 62.8195C56.2045 63.0114 57.5223 63.1823 58.4773 63.2876L59.6078 63.4187C59.7466 63.427 59.8844 63.4473 60.0197 63.4795Z" fill="#455A64"/>
<path id="Vector_114" d="M56.2042 62.7539C56.2206 62.7844 56.1714 62.8452 56.1059 62.9084C56.0403 62.9716 55.9748 63.0184 55.9467 62.9997C55.9186 62.981 55.9467 62.8944 56.0216 62.8195C56.0965 62.7446 56.1878 62.7259 56.2042 62.7539Z" fill="#455A64"/>
<path id="Vector_115" d="M56.2792 69.3147C56.259 69.3621 56.2331 69.4069 56.202 69.4481L55.9562 69.8202L55.0434 71.1731C54.2733 72.3177 53.22 73.9046 52.0895 75.6788C50.959 77.4529 49.9596 79.075 49.2457 80.2547C48.8946 80.8351 48.6091 81.3079 48.4031 81.659L48.169 82.0359C48.1449 82.0823 48.115 82.1256 48.0801 82.1646C48.0994 82.1162 48.1221 82.0693 48.148 82.0242C48.2018 81.9235 48.2743 81.7901 48.3609 81.6356C48.5482 81.2986 48.8291 80.8141 49.1731 80.2172C49.8753 79.0258 50.8537 77.3944 51.9819 75.6179C53.11 73.8414 54.1797 72.2638 54.9685 71.1333C55.3617 70.5669 55.6847 70.1105 55.9047 69.7992L56.1692 69.4411C56.2018 69.3955 56.2386 69.3532 56.2792 69.3147Z" fill="#455A64"/>
<path id="Vector_116" d="M55.816 69.977C55.5448 69.9964 55.2726 69.9964 55.0015 69.977C54.4982 69.9607 53.8054 69.9373 53.0377 69.8928C52.27 69.8483 51.5772 69.7804 51.0786 69.7149C50.8282 69.6821 50.6269 69.6517 50.4888 69.626C50.4149 69.6194 50.3423 69.602 50.2734 69.5745C50.5458 69.5748 50.8179 69.5927 51.088 69.6283C51.5889 69.6728 52.2793 69.7266 53.0447 69.7711C53.8101 69.8155 54.5053 69.853 55.0061 69.8904C55.2779 69.8987 55.5486 69.9276 55.816 69.977Z" fill="#455A64"/>
<path id="Vector_117" d="M60.4571 40.2046C60.4571 40.2046 60.7286 39.8441 61.0399 40.0758C61.3512 40.3075 62.7228 41.417 62.7228 41.417L63.6591 43.9542L62.3273 46.3861L60.0288 45.4007C60.1506 44.8326 60.3181 44.2753 60.5297 43.7342C60.5297 43.7342 58.9872 42.5405 59.467 42.07C59.467 42.07 59.5934 41.836 60.2488 42.379L60.9018 42.922C60.9018 42.922 59.7549 41.321 59.8275 40.9559C59.8327 40.89 59.8525 40.8261 59.8852 40.7687C59.918 40.7112 59.9631 40.6618 60.0172 40.6238C60.0713 40.5858 60.1331 40.5602 60.1982 40.5488C60.2633 40.5374 60.3302 40.5406 60.3939 40.558L60.4571 40.2046Z" fill="#FFBE9D"/>
<path id="Vector_118" d="M59.0132 40.8318L59.9611 41.0659L64.0806 44.7055C64.1525 44.7683 64.1966 44.857 64.2032 44.9522C64.2097 45.0475 64.1783 45.1414 64.1157 45.2135C64.0849 45.2501 64.0471 45.2802 64.0045 45.3021C63.962 45.3239 63.9155 45.3371 63.8678 45.3408C63.82 45.3445 63.7721 45.3387 63.7266 45.3237C63.6812 45.3086 63.6392 45.2847 63.6031 45.2533L59.4977 41.7119L59.0132 40.8318Z" fill="#FF725E"/>
<path id="Vector_119" opacity="0.4" d="M63.5303 45.1877L63.9844 44.6166L64.1388 44.7687C64.202 44.8324 64.2391 44.9173 64.243 45.0069C64.2469 45.0965 64.2173 45.1843 64.1599 45.2533C64.1289 45.2905 64.0907 45.3211 64.0475 45.3432C64.0043 45.3652 63.9571 45.3783 63.9088 45.3816C63.8604 45.3849 63.8119 45.3783 63.7661 45.3623C63.7204 45.3463 63.6784 45.3211 63.6426 45.2884L63.5303 45.1877Z" fill="white"/>
<path id="Vector_120" opacity="0.4" d="M59.1699 41.094L59.3291 40.9067L59.9751 41.0729C59.9942 41.106 60.0043 41.1435 60.0043 41.1818C60.0043 41.22 59.9942 41.2575 59.9751 41.2906C59.9119 41.3725 59.7902 41.3046 59.7902 41.3046C59.8087 41.3409 59.8183 41.381 59.8183 41.4217C59.8183 41.4624 59.8087 41.5025 59.7902 41.5387C59.7317 41.623 59.5865 41.5879 59.5865 41.5879C59.5989 41.6002 59.6084 41.6151 59.6144 41.6316C59.6204 41.648 59.6226 41.6656 59.6211 41.683C59.6195 41.7004 59.6141 41.7172 59.6053 41.7324C59.5965 41.7475 59.5845 41.7605 59.5702 41.7704L59.5116 41.7189L59.1699 41.094Z" fill="white"/>
<path id="Vector_121" opacity="0.4" d="M59.7782 41.3047L63.872 44.7383L63.6566 45.0075L59.5723 41.5879C59.6098 41.5985 59.6497 41.5977 59.6868 41.5856C59.7238 41.5735 59.7565 41.5507 59.7806 41.52C59.7991 41.4871 59.8087 41.4498 59.8083 41.412C59.8079 41.3742 59.7975 41.3372 59.7782 41.3047Z" fill="black"/>
<path id="Vector_122" d="M60.1738 44.7009C60.3449 44.3311 60.4911 43.9503 60.6115 43.561C60.663 43.2778 60.1691 41.4357 60.9064 41.2906L61.1405 41.4006L61.7654 44.3638L60.5413 45.5341L60.1738 44.7009Z" fill="#FFBE9D"/>
<path id="Vector_123" d="M61.9156 42.5779C61.8945 42.5779 61.8547 42.4071 61.726 42.1496C61.5681 41.814 61.3341 41.5198 61.0425 41.2906C60.8622 41.1769 60.6963 41.0418 60.5487 40.888C60.4852 40.8212 60.4363 40.742 60.4049 40.6554C60.3735 40.5689 60.3603 40.4767 60.3661 40.3848C60.3728 40.3226 60.3925 40.2625 60.4239 40.2085C60.4554 40.1545 60.4979 40.1077 60.5487 40.0711C60.6236 40.022 60.675 40.0267 60.675 40.0314C60.675 40.036 60.6329 40.0548 60.5791 40.1086C60.5021 40.1832 60.4568 40.2847 60.4527 40.3918C60.456 40.551 60.5205 40.7027 60.6329 40.8155C60.7811 40.9563 60.9426 41.0825 61.1151 41.1923C61.4231 41.4329 61.6614 41.7512 61.8056 42.1145C61.8759 42.259 61.9135 42.4172 61.9156 42.5779Z" fill="#EB996E"/>
<path id="Vector_124" d="M61.6183 43.9051C61.5911 43.829 61.5707 43.7507 61.5574 43.671C61.5246 43.5189 61.4591 43.3059 61.3866 43.0367C61.3475 42.8881 61.3178 42.7372 61.2976 42.585C61.2765 42.4211 61.2672 42.2456 61.2391 42.0677C61.2258 41.9781 61.2054 41.8896 61.1782 41.8032C61.1507 41.7156 61.1162 41.6303 61.0752 41.5481C61.0676 41.5347 61.0563 41.5238 61.0425 41.5167C61.0288 41.5096 61.0134 41.5067 60.998 41.5083C60.9555 41.516 60.9145 41.5302 60.8763 41.5504C60.7941 41.596 60.7266 41.6643 60.682 41.747C60.5887 41.92 60.5435 42.1147 60.551 42.3111C60.555 42.4995 60.5785 42.687 60.6212 42.8705C60.6621 43.0438 60.6817 43.2214 60.6797 43.3995C60.6698 43.5575 60.6284 43.7118 60.558 43.8536C60.4498 44.0408 60.3768 44.2463 60.3426 44.4598C60.3404 44.538 60.3443 44.6163 60.3543 44.6938C60.308 44.6251 60.2873 44.5423 60.2958 44.4598C60.3124 44.2366 60.3745 44.0191 60.4784 43.8208C60.5379 43.6878 60.572 43.545 60.579 43.3995C60.5758 43.2297 60.553 43.0608 60.5112 42.8963C60.4633 42.7055 60.4366 42.5101 60.4316 42.3134C60.4211 42.0947 60.4722 41.8773 60.579 41.6862C60.6078 41.6376 60.6415 41.5921 60.6797 41.5504C60.7192 41.5055 60.7679 41.4696 60.8225 41.4451C60.8745 41.4161 60.9318 41.3978 60.991 41.3913C61.0263 41.3885 61.0616 41.3953 61.0933 41.411C61.125 41.4266 61.152 41.4505 61.1712 41.4802C61.2212 41.5721 61.2605 41.6695 61.2882 41.7704C61.317 41.8628 61.3373 41.9576 61.3491 42.0536C61.3749 42.2409 61.3819 42.4164 61.3983 42.5756C61.4133 42.7244 61.4376 42.8721 61.4708 43.018C61.5317 43.2871 61.5855 43.5095 61.6042 43.664C61.6211 43.7432 61.6258 43.8245 61.6183 43.9051Z" fill="#EB996E"/>
<path id="Vector_125" d="M38.8135 41.6744L45.1284 35.5608L48.3538 37.981L41.7697 45.8173L38.8135 41.6744Z" fill="#FF725E"/>
<path id="Vector_126" opacity="0.4" d="M38.8135 41.6744L45.1284 35.5608L48.3538 37.981L41.7697 45.8173L38.8135 41.6744Z" fill="black"/>
<path id="Vector_127" d="M48.9367 34.9335L51.7969 34.5567C51.5886 34.3811 50.9075 33.92 49.2223 33.6204C47.0923 33.2506 45.29 35.6708 45.29 35.6708L47.9068 37.651L48.8829 36.6773C48.8829 36.6773 50.3949 36.4573 51.2235 36.2677C51.324 36.2414 51.4177 36.194 51.4985 36.1286C51.5792 36.0632 51.645 35.9814 51.6916 35.8885H51.6495C50.416 35.8019 49.3159 35.4719 48.9367 34.9335Z" fill="#FFBE9D"/>
<path id="Vector_128" d="M50.0881 35.631C49.8034 35.5674 49.5358 35.4429 49.3039 35.2659C49.0719 35.0889 48.8811 34.8637 48.7446 34.6058C48.7727 34.5848 49.0068 34.889 49.3766 35.1676C49.7464 35.4461 50.0998 35.5983 50.0881 35.631Z" fill="#EB996E"/>
<path id="Vector_129" d="M38.6079 28.7192L38.5728 39.8862L43.364 40.1203L43.5091 37.3958C43.5091 37.3958 45.213 37.7352 45.6507 36.153C45.9316 35.1442 45.8614 27.3406 45.8614 27.3406L38.6079 28.7192Z" fill="#FFBE9D"/>
<path id="Vector_130" d="M45.5803 25.6132C44.1221 26.0814 43.771 26.2429 43.1156 26.2944C42.4602 26.3458 38.0248 26.3482 37.6199 28.8503L37.5894 29.1569V29.1452C37.5894 29.1569 36.6321 28.759 36.8873 30.4911C37.0183 31.3945 37.3882 32.2278 37.7322 33.2202C37.9663 34.6901 37.1307 35.0576 36.4402 35.5421C36.2693 35.6638 36.0634 35.8136 36.0915 36.0102C36.1195 36.2068 36.3255 36.2958 36.5151 36.3262C36.9198 36.3905 37.3336 36.2948 37.669 36.0594C37.571 36.2741 37.4616 36.4835 37.3413 36.6866C37.2477 36.9043 37.2571 37.2063 37.4654 37.3186C37.5859 37.3717 37.7218 37.3784 37.8469 37.3373C38.2354 37.2447 38.586 37.0346 38.851 36.7358C38.8067 36.8304 38.7987 36.9379 38.8284 37.038C38.8582 37.1382 38.9237 37.2238 39.0125 37.2788C39.1941 37.3827 39.4035 37.4277 39.6117 37.4075C40.548 37.3935 41.7019 37.4075 42.5749 36.4385C43.3824 35.5397 43.5744 34.964 43.661 33.7211C43.661 33.7211 42.7083 33.5643 42.8184 32.7989C42.9728 31.7409 43.7827 31.7129 44.3842 32.1857L45.0864 30.3249C45.0864 30.3249 46.8442 29.171 46.9448 28.436C47.0455 27.7011 47.0361 25.1404 45.5803 25.6132Z" fill="#263238"/>
<path id="Vector_131" d="M51.3733 54.0141C49.9315 52.2493 48.595 50.6671 48.595 50.6671C48.6559 52.9749 48.8946 54.9738 48.8946 54.9738L49.5804 62.115C49.6262 62.6176 49.49 63.12 49.1966 63.5306C48.9032 63.9413 48.4721 64.233 47.9818 64.3526C43.5042 65.434 38.2636 65.7406 35.3285 63.7253C34.9515 63.4626 34.6438 63.1125 34.4318 62.7048C34.2198 62.2972 34.1099 61.8442 34.1114 61.3847V55.2991L33.3413 47.1211C33.2694 45.8329 33.3869 44.5412 33.69 43.2872C34.0033 42.2363 34.633 41.3076 35.4934 40.6278C36.3537 39.948 37.4028 39.5501 38.4976 39.4884C40.1173 39.3971 41.9313 39.2543 43.5557 39.2332C45.4679 39.2016 47.3354 39.8123 48.8595 40.9676C51.2516 42.7839 53.0585 46.9549 54.7485 49.6115L59.3758 44.0291L63.2027 46.4727L57.9738 54.1967C57.5527 54.6618 57.036 55.0302 56.4591 55.2766C55.8821 55.5231 55.2587 55.6417 54.6316 55.6243C54.0044 55.607 53.3885 55.4541 52.8261 55.1761C52.2636 54.8982 51.768 54.5018 51.3733 54.0141Z" fill="#FF725E"/>
<path id="Vector_132" d="M36.8076 44.8577C36.8822 44.491 36.9976 44.1338 37.1517 43.7927C37.271 43.4369 37.4279 43.0948 37.6198 42.7722C37.5426 43.1382 37.4273 43.4952 37.2757 43.8372C37.1564 44.193 36.9995 44.5351 36.8076 44.8577Z" fill="#263238"/>
<path id="Vector_133" d="M42.1326 47.526C41.7141 47.1259 41.354 46.6689 41.063 46.1684C41.4815 46.5685 41.8416 47.0255 42.1326 47.526Z" fill="#263238"/>
<path id="Vector_134" d="M45.2481 43.1701C44.8074 43.3953 44.3331 43.5479 43.8438 43.6218C44.0563 43.4902 44.2886 43.3938 44.5319 43.3363C44.76 43.2424 45.0019 43.1863 45.2481 43.1701Z" fill="#263238"/>
<path id="Vector_135" d="M37.3438 50.5781C37.4094 50.2836 37.5166 49.9999 37.6621 49.7355C37.7692 49.454 37.9133 49.188 38.0904 48.9444C38.0221 49.2381 37.9151 49.5215 37.7721 49.787C37.6656 50.0688 37.5215 50.3349 37.3438 50.5781Z" fill="#263238"/>
<path id="Vector_136" d="M37.0444 55.1587C36.8168 54.9325 36.6186 54.6785 36.4545 54.4027C36.2564 54.1504 36.092 53.8735 35.9653 53.5788C36.192 53.8058 36.3901 54.0597 36.5552 54.3348C36.7528 54.5874 36.9172 54.8643 37.0444 55.1587Z" fill="#263238"/>
<path id="Vector_137" d="M44.2347 53.4688C43.9085 53.66 43.5634 53.8169 43.2048 53.9369C42.861 54.0924 42.5017 54.2108 42.1328 54.2903C42.4566 54.096 42.8013 53.939 43.1603 53.8222C43.5044 53.6653 43.8647 53.5468 44.2347 53.4688Z" fill="#263238"/>
<path id="Vector_138" d="M40.1032 52.4951C39.9409 52.0194 39.9409 51.5033 40.1032 51.0275C40.1242 51.2721 40.1242 51.5179 40.1032 51.7625C40.1242 52.0062 40.1242 52.2513 40.1032 52.4951Z" fill="#263238"/>
<path id="Vector_139" d="M46.3853 50.9105C46.1736 50.5533 46.0158 50.1669 45.9172 49.7636C45.7787 49.3711 45.6998 48.96 45.6831 48.5441C45.7159 48.5441 45.8399 49.0778 46.0365 49.7285C46.1728 50.1163 46.2892 50.5108 46.3853 50.9105Z" fill="#263238"/>
<path id="Vector_140" d="M50.786 46.9572C50.5008 46.909 50.2187 46.8442 49.941 46.7629C49.6552 46.7223 49.3722 46.6636 49.0938 46.5874C49.3855 46.5429 49.6835 46.5629 49.9668 46.6459C50.2591 46.6895 50.5385 46.7957 50.786 46.9572Z" fill="#263238"/>
<path id="Vector_141" d="M52.8266 50.0351C52.5553 50.1831 52.2657 50.2949 51.9653 50.3675C51.6775 50.4794 51.376 50.5526 51.0688 50.5851C51.6273 50.3235 52.2186 50.1385 52.8266 50.0351Z" fill="#263238"/>
<path id="Vector_142" d="M54.744 53.8526C54.5831 53.1549 54.6361 52.4249 54.8962 51.7578C54.9289 51.7578 54.8236 52.2259 54.7838 52.8017C54.744 53.3775 54.7838 53.8479 54.744 53.8526Z" fill="#263238"/>
<path id="Vector_143" d="M58.2943 50.8075C58.0662 50.6416 57.8467 50.4643 57.6366 50.2762C57.2691 49.993 56.9344 49.8081 56.9508 49.7753C57.2315 49.8496 57.4912 49.9883 57.7091 50.1802C57.9511 50.34 58.1517 50.555 58.2943 50.8075Z" fill="#263238"/>
<path id="Vector_144" d="M60.5672 46.9595C60.0082 47.3707 59.4015 47.7126 58.7603 47.9777C59.0288 47.7577 59.3217 47.5692 59.6333 47.416C59.9265 47.2292 60.2398 47.0761 60.5672 46.9595Z" fill="#263238"/>
<path id="Vector_145" d="M46.376 58.5432C46.4267 58.1874 46.5186 57.8386 46.6498 57.504C46.7406 57.1571 46.871 56.8217 47.0384 56.5045C46.9877 56.8604 46.8958 57.2091 46.7645 57.5438C46.6724 57.8903 46.5421 58.2255 46.376 58.5432Z" fill="#263238"/>
<path id="Vector_146" d="M40.7213 59.5239C40.4734 59.2776 40.2535 59.0044 40.066 58.7094C39.8436 58.3957 39.6587 58.1149 39.5698 57.9604L39.4551 57.7591L39.6142 57.9183C39.6821 57.9861 39.7149 58.0259 39.7079 58.0353C39.7008 58.0446 39.654 58.0189 39.5745 57.9651L39.6189 57.9253C39.7383 58.0587 39.9419 58.3255 40.1643 58.6275C40.3851 58.9029 40.5722 59.2039 40.7213 59.5239Z" fill="#263238"/>
<path id="Vector_147" d="M43.5698 59.2196C43.6943 59.5828 43.7813 59.9576 43.8296 60.3384C43.9159 60.7133 43.963 61.0961 43.9701 61.4807C43.843 61.1173 43.7552 60.7415 43.7079 60.3595C43.6204 59.9857 43.574 59.6035 43.5698 59.2196Z" fill="#263238"/>
<path id="Vector_148" d="M37.5075 61.5345C37.0362 61.1599 36.618 60.7229 36.2646 60.2355C36.5133 60.4074 36.7377 60.6121 36.9317 60.844C37.1541 61.047 37.3478 61.2793 37.5075 61.5345Z" fill="#263238"/>
<path id="Vector_149" d="M42.2522 63.8798C41.709 63.9607 41.1569 63.9607 40.6138 63.8798C41.1569 63.7989 41.709 63.7989 42.2522 63.8798Z" fill="#263238"/>
<path id="Vector_150" d="M47.9558 61.4104C47.7392 61.6677 47.4925 61.8979 47.2209 62.0962C46.9753 62.3253 46.7025 62.5234 46.4087 62.6861C46.626 62.4295 46.8727 62.1993 47.1436 62.0003C47.3897 61.7718 47.6624 61.5738 47.9558 61.4104Z" fill="#263238"/>
</g>
<g id="Plant">
<path id="Vector_151" d="M16.6177 76.587C16.7634 76.1615 16.7944 75.7051 16.7077 75.2638C16.621 74.8226 16.4196 74.4119 16.1238 74.0731C15.8204 73.741 15.4538 73.4727 15.0455 73.2838C14.6372 73.0949 14.1953 72.9893 13.7458 72.9731C13.3315 72.9497 12.8727 73.0082 12.5942 73.3148C12.472 73.4663 12.3924 73.6477 12.3636 73.8403C12.3348 74.0328 12.3578 74.2295 12.4303 74.4102C12.581 74.7684 12.8232 75.0808 13.1325 75.316C14.1554 76.1656 15.3023 76.7999 16.6153 76.5893" fill="#FF725E"/>
<path id="Vector_152" d="M18.7217 77.8204C18.9989 76.9137 19.488 76.0861 20.1486 75.4059C20.8092 74.7258 21.6222 74.2128 22.5205 73.9093C22.9769 73.7595 23.5574 73.6986 23.8687 74.0638C24.18 74.4289 24.0278 75 23.7961 75.419C23.2972 76.294 22.5504 77.0017 21.6498 77.4528C20.7492 77.9039 19.7353 78.0782 18.7357 77.9539" fill="#FF725E"/>
<path id="Vector_153" opacity="0.3" d="M18.7217 77.8204C18.9989 76.9137 19.488 76.0861 20.1486 75.4059C20.8092 74.7258 21.6222 74.2128 22.5205 73.9093C22.9769 73.7595 23.5574 73.6986 23.8687 74.0638C24.18 74.4289 24.0278 75 23.7961 75.419C23.2972 76.294 22.5504 77.0017 21.6498 77.4528C20.7492 77.9039 19.7353 78.0782 18.7357 77.9539" fill="white"/>
<path id="Vector_154" d="M19.3327 65.8365C18.95 65.9604 18.5962 66.1602 18.2925 66.4241C17.9889 66.6879 17.7416 67.0103 17.5655 67.372C17.2154 68.1021 17.0376 68.9029 17.0459 69.7126C17.0155 71.2644 17.6779 72.9239 18.4503 74.2721C19.8898 73.3195 20.4468 71.3978 20.6692 70.4054C21.0203 68.8372 20.702 65.7874 19.3327 65.8459" fill="#FF725E"/>
<path id="Vector_155" d="M17.7084 81.1769C17.7338 80.9179 17.744 80.6576 17.7388 80.3975C17.6667 79.4182 17.4636 78.4531 17.1349 77.5279C16.7967 76.5939 16.211 75.7695 15.4403 75.1428C15.205 74.9553 14.9471 74.7981 14.6726 74.6747C14.575 74.6239 14.4699 74.5891 14.3613 74.5717C14.7117 74.7657 15.0466 74.9863 15.3631 75.2317C16.0883 75.8687 16.6421 76.6775 16.9734 77.5841C17.294 78.4928 17.5099 79.4351 17.6171 80.3928" fill="#263238"/>
<path id="Vector_156" d="M17.7035 81.2026C17.748 80.8281 17.8042 80.3389 17.8721 79.7491C18.0102 78.5203 18.2068 76.8233 18.4478 74.9508C18.6889 73.0784 18.9324 71.3884 19.1079 70.1643L19.3162 68.7155C19.3497 68.5387 19.3677 68.3594 19.37 68.1795C19.3152 68.3506 19.2745 68.526 19.2483 68.7038C19.1805 69.0432 19.0915 69.537 18.9862 70.1456C18.7779 71.365 18.5181 73.055 18.284 74.9298C18.0499 76.8046 17.8674 78.5039 17.7597 79.735C17.7059 80.353 17.6661 80.8515 17.645 81.1979" fill="#263238"/>
<path id="Vector_157" d="M22.1277 75.3371C22.0238 75.3479 21.9221 75.374 21.8257 75.4143C21.7081 75.4478 21.5931 75.4901 21.4817 75.5407C21.3314 75.6013 21.1845 75.67 21.0416 75.7467C20.6659 75.9452 20.3108 76.1804 19.9814 76.4489C19.177 77.1089 18.5361 77.946 18.1089 78.8948C17.9345 79.281 17.8004 79.6842 17.7086 80.0979C17.6694 80.2518 17.6405 80.4082 17.622 80.566C17.6018 80.6867 17.5901 80.8087 17.5869 80.9311C17.5869 81.1324 17.6314 81.1909 17.6431 81.1933C17.6861 80.8314 17.7479 80.472 17.828 80.1166C17.9349 79.7146 18.0775 79.3229 18.254 78.9463C18.4762 78.4908 18.7411 78.0574 19.0451 77.6519C19.3571 77.2533 19.7075 76.8864 20.0914 76.5565C20.4086 76.2895 20.7485 76.0506 21.1072 75.8426C21.7157 75.5033 22.1394 75.3698 22.1277 75.3371Z" fill="#263238"/>
<path id="Vector_158" opacity="0.2" d="M16.6177 76.587C16.7634 76.1615 16.7944 75.7051 16.7077 75.2638C16.621 74.8226 16.4196 74.4119 16.1238 74.0731C15.8204 73.741 15.4538 73.4727 15.0455 73.2838C14.6372 73.0949 14.1953 72.9893 13.7458 72.9731C13.3315 72.9497 12.8727 73.0082 12.5942 73.3148C12.472 73.4663 12.3924 73.6477 12.3636 73.8403C12.3348 74.0328 12.3578 74.2295 12.4303 74.4102C12.581 74.7684 12.8232 75.0808 13.1325 75.316C14.1554 76.1656 15.3023 76.7999 16.6153 76.5893" fill="black"/>
<path id="Vector_159" d="M13.6289 80.8913H21.6455V83.8873C21.6449 84.9503 21.2222 85.9695 20.4703 86.7209C19.7185 87.4723 18.699 87.8944 17.636 87.8944C16.5735 87.8938 15.5546 87.4714 14.8032 86.7201C14.0519 85.9687 13.6295 84.9499 13.6289 83.8873V80.8913Z" fill="#455A64"/>
<path id="Vector_160" d="M21.6384 82.82C21.5342 82.831 21.429 82.831 21.3248 82.82L20.4705 82.7942C19.7496 82.7708 18.7548 82.7404 17.6617 82.7217C16.5687 82.7029 15.5552 82.7006 14.853 82.7006H13.9987C13.8939 82.7065 13.7887 82.701 13.6851 82.6842C13.7877 82.6644 13.8919 82.6542 13.9964 82.6538C14.1977 82.6421 14.4902 82.628 14.8507 82.6187C15.5739 82.5976 16.571 82.5859 17.6734 82.6046C18.7759 82.6234 19.78 82.6678 20.4822 82.7146C20.8426 82.7357 21.1329 82.7591 21.3342 82.7778C21.4368 82.781 21.5388 82.7951 21.6384 82.82Z" fill="#263238"/>
<path id="Vector_161" d="M21.636 83.2717C21.5309 83.2813 21.4251 83.2813 21.32 83.2717L20.468 83.246C19.7471 83.2226 18.75 83.1921 17.6593 83.1734C16.5686 83.1547 15.5528 83.1523 14.8506 83.1523H13.9963C13.8914 83.1581 13.7863 83.1526 13.6826 83.136C13.786 83.1163 13.891 83.1061 13.9963 83.1055C14.1976 83.0938 14.4901 83.0798 14.8506 83.0704C15.5715 83.0494 16.5686 83.0377 17.6593 83.0564C18.75 83.0751 19.7658 83.1196 20.468 83.1664C20.8285 83.1875 21.1211 83.2109 21.3224 83.2296C21.4281 83.232 21.5333 83.2462 21.636 83.2717Z" fill="#263238"/>
</g>
</g>
</svg>
