<svg width="91" height="90" viewBox="0 0 91 90" fill="none" xmlns="http://www.w3.org/2000/svg">
<g id="image">
<g id="Plant  inject 1">
<path id="Vector" d="M12.4746 31.4113C16.3092 31.4113 19.4179 27.8013 19.4179 23.3481C19.4179 18.895 16.3092 15.2849 12.4746 15.2849C8.63987 15.2849 5.53125 18.895 5.53125 23.3481C5.53125 27.8013 8.63987 31.4113 12.4746 31.4113Z" fill="white" stroke="#2E353A" stroke-linecap="round" stroke-linejoin="round"/>
<path id="Vector_2" d="M11.958 30.6104C15.7926 30.6104 18.9013 27.0004 18.9013 22.5472C18.9013 18.094 15.7926 14.484 11.958 14.484C8.12327 14.484 5.01465 18.094 5.01465 22.5472C5.01465 27.0004 8.12327 30.6104 11.958 30.6104Z" fill="white" stroke="#2E353A" stroke-linecap="round" stroke-linejoin="round"/>
<path id="Vector_3" d="M11.9582 29.8094C15.412 29.8094 18.2118 26.558 18.2118 22.5472C18.2118 18.5364 15.412 15.2849 11.9582 15.2849C8.50442 15.2849 5.70459 18.5364 5.70459 22.5472C5.70459 26.558 8.50442 29.8094 11.9582 29.8094Z" fill="#2E353A" stroke="#2E353A" stroke-linecap="round" stroke-linejoin="round"/>
<path id="Vector_4" d="M11.2242 17.0877C11.2242 17.0877 10.5345 15.0841 9.32804 13.683C8.12156 12.282 3.20313 11.3783 3.20313 11.3783C3.99735 12.2679 4.71957 13.2403 5.36072 14.2832C6.48074 16.0859 10.1867 20.1934 10.1867 20.1934C10.1867 20.1934 8.37693 18.3907 6.73611 18.1898C5.0953 17.989 0.957066 18.9908 0.703705 18.9908C0.450344 18.9908 2.25604 19.7917 3.551 20.4923C4.84596 21.1928 9.84683 21.7953 9.84683 21.7953C9.84683 21.7953 7.69125 22.4958 6.22738 23.0983C4.76352 23.7007 3.37606 28.1048 3.37606 28.1048C3.37606 28.1048 5.27426 26.1013 6.91306 25.6015C8.55187 25.1018 10.8804 24.2005 10.8804 24.2005C10.8804 24.2005 9.4145 26.1036 9.07065 27.4066C8.72681 28.7096 8.98419 31.7126 8.98419 31.7126C8.98419 31.7126 9.76036 28.9104 10.7095 27.8059C11.6586 26.7014 12.6901 24.8123 12.6901 24.8123C13.1678 25.7166 13.6002 26.6522 13.9851 27.6144C14.6748 29.3167 15.1051 31.8176 15.1051 31.8176C15.1051 31.8176 16.2271 29.0155 16.1406 27.6144C16.0542 26.2133 14.7612 23.7078 14.7612 23.7078C14.7612 23.7078 15.6239 23.0072 16.9168 23.6073C18.2098 24.2075 20.4538 26.7131 20.4538 26.7131C20.4538 26.7131 19.935 23.4065 19.0724 22.1059C18.2098 20.8052 14.5018 20.4012 14.5018 20.4012C14.5018 20.4012 16.573 19.0001 17.8659 18.6989C19.1589 18.3977 20.8821 19.1005 20.8821 19.1005C20.8821 19.1005 18.8995 15.8944 17.3471 15.6936C15.7948 15.4928 13.4663 18.2903 13.4663 18.2903L14.158 14.2832C14.3289 13.2814 13.9851 10.7805 13.9851 10.7805C13.9851 10.7805 13.036 11.3806 11.9139 13.2837C11.5856 13.8319 11.3553 14.451 11.2368 15.1045C11.1184 15.7579 11.1141 16.4323 11.2242 17.0877Z" fill="#F4D452"/>
<path id="Vector_5" opacity="0.5" d="M11.2242 17.0877C11.2242 17.0877 10.5345 15.0841 9.32804 13.683C8.12156 12.282 3.20313 11.3783 3.20313 11.3783C3.99735 12.2679 4.71957 13.2403 5.36072 14.2832C6.48074 16.0859 10.1867 20.1934 10.1867 20.1934C10.1867 20.1934 8.37693 18.3907 6.73611 18.1898C5.0953 17.989 0.957066 18.9908 0.703705 18.9908C0.450344 18.9908 2.25604 19.7917 3.551 20.4923C4.84596 21.1928 9.84683 21.7953 9.84683 21.7953C9.84683 21.7953 7.69125 22.4958 6.22738 23.0983C4.76352 23.7007 3.37606 28.1048 3.37606 28.1048C3.37606 28.1048 5.27426 26.1013 6.91306 25.6015C8.55187 25.1018 10.8804 24.2005 10.8804 24.2005C10.8804 24.2005 9.4145 26.1036 9.07065 27.4066C8.72681 28.7096 8.98419 31.7126 8.98419 31.7126C8.98419 31.7126 9.76036 28.9104 10.7095 27.8059C11.6586 26.7014 12.6901 24.8123 12.6901 24.8123C13.1678 25.7166 13.6002 26.6522 13.9851 27.6144C14.6748 29.3167 15.1051 31.8176 15.1051 31.8176C15.1051 31.8176 16.2271 29.0155 16.1406 27.6144C16.0542 26.2133 14.7612 23.7078 14.7612 23.7078C14.7612 23.7078 15.6239 23.0072 16.9168 23.6073C18.2098 24.2075 20.4538 26.7131 20.4538 26.7131C20.4538 26.7131 19.935 23.4065 19.0724 22.1059C18.2098 20.8052 14.5018 20.4012 14.5018 20.4012C14.5018 20.4012 16.573 19.0001 17.8659 18.6989C19.1589 18.3977 20.8821 19.1005 20.8821 19.1005C20.8821 19.1005 18.8995 15.8944 17.3471 15.6936C15.7948 15.4928 13.4663 18.2903 13.4663 18.2903L14.158 14.2832C14.3289 13.2814 13.9851 10.7805 13.9851 10.7805C13.9851 10.7805 13.036 11.3806 11.9139 13.2837C11.5856 13.8319 11.3553 14.451 11.2368 15.1045C11.1184 15.7579 11.1141 16.4323 11.2242 17.0877Z" fill="black"/>
<path id="Vector_6" d="M12.9233 14.038C12.9837 13.7508 13.05 13.4636 13.1244 13.181" stroke="#2E353A" stroke-width="0.5" stroke-linecap="round" stroke-linejoin="round"/>
<path id="Vector_7" d="M7.1626 14.038C7.96692 14.7222 8.97232 15.6726 9.49915 16.4875C10.4482 17.989 12.3464 21.1952 12.3464 21.1952C12.2921 19.0417 12.4391 16.8878 12.7848 14.7712" stroke="#2E353A" stroke-width="0.5" stroke-linecap="round" stroke-linejoin="round"/>
<path id="Vector_8" d="M5.96387 13.0806C5.96387 13.0806 6.21522 13.2674 6.59124 13.5686" stroke="#2E353A" stroke-width="0.5" stroke-linecap="round" stroke-linejoin="round"/>
<path id="Vector_9" d="M12.3457 21.1951C12.3457 21.1951 15.6233 17.3889 17.0027 17.0876C18.3821 16.7864 19.5906 17.989 19.5906 17.989" stroke="#2E353A" stroke-width="0.5" stroke-linecap="round" stroke-linejoin="round"/>
<path id="Vector_10" d="M6.48835 24.3779C5.68403 24.9664 5.61768 25.312 5.61768 25.312" stroke="#2E353A" stroke-width="0.5" stroke-linecap="round" stroke-linejoin="round"/>
<path id="Vector_11" d="M19.5051 24.7002C19.5051 24.7002 18.9883 23.1963 17.1766 22.4958C15.3649 21.7953 12.5216 21.6949 12.5216 21.6949C12.5216 21.6949 8.53016 23.2127 7.07031 24.0043" stroke="#2E353A" stroke-width="0.5" stroke-linecap="round" stroke-linejoin="round"/>
<path id="Vector_12" d="M10.7764 21.1228C11.7416 21.4497 12.5197 21.6949 12.5197 21.6949" stroke="#2E353A" stroke-width="0.5" stroke-linecap="round" stroke-linejoin="round"/>
<path id="Vector_13" d="M4.70166 19.3434C5.63869 19.4088 6.84518 19.5582 7.51678 19.8921C8.06372 20.1653 9.14151 20.56 10.159 20.9126" stroke="#2E353A" stroke-width="0.5" stroke-linecap="round" stroke-linejoin="round"/>
<path id="Vector_14" d="M3.37598 19.292C3.37598 19.292 3.69167 19.292 4.15617 19.313" stroke="#2E353A" stroke-width="0.5" stroke-linecap="round" stroke-linejoin="round"/>
<path id="Vector_15" d="M12.3463 22.295C12.3463 22.295 9.93332 26.4982 9.75838 27.5047C9.65475 28.0984 9.59688 28.7017 9.58545 29.3074" stroke="#2E353A" stroke-width="0.5" stroke-linecap="round" stroke-linejoin="round"/>
<path id="Vector_16" d="M13.4199 23.619C13.8844 24.3196 14.4414 25.2536 14.6747 26.0008C14.9462 26.9125 15.148 27.8502 15.2779 28.803" stroke="#2E353A" stroke-width="0.5" stroke-linecap="round" stroke-linejoin="round"/>
<path id="Vector_17" d="M12.6904 22.5962C12.6904 22.5962 12.8915 22.8437 13.1509 23.2244" stroke="#2E353A" stroke-width="0.5" stroke-linecap="round" stroke-linejoin="round"/>
<path id="Vector_18" d="M10.1285 17.9517C10.1285 17.9517 9.68408 15.85 9.95956 13.9002C10.235 11.9504 13.7801 7.88025 13.7801 7.88025C13.5831 9.14073 13.4855 10.4194 13.4885 11.7005C13.4885 13.9236 12.5334 19.7707 12.5334 19.7707C12.5334 19.7707 13.0984 17.0807 14.329 15.801C15.5596 14.5214 19.4264 12.5318 19.6355 12.3614C19.8447 12.1909 18.7769 14.0637 18.0792 15.5114C17.3814 16.9592 13.6152 20.8425 13.6152 20.8425C13.6152 20.8425 15.7185 19.9505 17.2105 19.4415C18.7025 18.9324 22.0364 21.5804 22.0364 21.5804C22.0364 21.5804 19.4888 21.2395 17.9062 21.9424C16.3237 22.6453 13.9792 23.4906 13.9792 23.4906C13.9792 23.4906 16.1267 24.044 17.0597 24.8683C17.9927 25.6926 19.2957 28.315 19.2957 28.315C19.2957 28.315 17.2568 26.5613 15.9316 26.3091C14.6065 26.0569 12.8109 25.2139 12.8109 25.2139C12.879 26.2717 12.9985 27.3242 13.1688 28.3663C13.4644 30.2181 14.3753 32.5439 14.3753 32.5439C14.3753 32.5439 12.0568 31.026 11.4214 29.8281C10.786 28.6302 10.5809 25.7206 10.5809 25.7206C10.5809 25.7206 9.52723 25.7346 8.77117 27.0983C8.01511 28.4621 7.45812 32.0161 7.45812 32.0161C7.45812 32.0161 6.21946 28.9805 6.26571 27.3459C6.31196 25.7113 9.12306 22.8671 9.12306 22.8671C9.12306 22.8671 6.73825 23.131 5.53579 23.7615C4.33333 24.3919 3.28369 26.1316 3.28369 26.1316C3.28369 26.1316 3.28369 22.1852 4.44594 20.971C5.60818 19.7567 8.90791 20.4572 8.90791 20.4572L6.33408 17.6714C5.69062 16.9709 4.71337 14.7058 4.71337 14.7058C4.71337 14.7058 5.78714 14.5517 7.65317 15.3386C8.19556 15.5592 8.69421 15.9042 9.11945 16.3531C9.54469 16.802 9.88784 17.3456 10.1285 17.9517Z" fill="#F4D452"/>
<path id="Vector_19" d="M7.21666 16.6253C7.01558 16.4315 6.82657 16.2447 6.62549 16.0626" stroke="#2E353A" stroke-width="0.5" stroke-linecap="round" stroke-linejoin="round"/>
<path id="Vector_20" d="M11.8964 12.7233C11.5847 13.8255 11.2368 15.2756 11.2288 16.2937C11.2127 18.1618 11.2811 22.0451 11.2811 22.0451C10.2432 20.2596 9.04101 18.6107 7.6958 17.1273" stroke="#2E353A" stroke-width="0.5" stroke-linecap="round" stroke-linejoin="round"/>
<path id="Vector_21" d="M12.3904 11.1331C12.3904 11.1331 12.2778 11.4553 12.125 11.9527" stroke="#2E353A" stroke-width="0.5" stroke-linecap="round" stroke-linejoin="round"/>
<path id="Vector_22" d="M11.2809 22.0451C11.2809 22.0451 6.70631 21.1741 5.43548 21.8653C4.16465 22.5565 3.78662 24.3452 3.78662 24.3452" stroke="#2E353A" stroke-width="0.5" stroke-linecap="round" stroke-linejoin="round"/>
<path id="Vector_23" d="M17.6392 20.6627C18.5822 20.602 18.8074 20.8239 18.8074 20.8239" stroke="#2E353A" stroke-width="0.5" stroke-linecap="round" stroke-linejoin="round"/>
<path id="Vector_24" d="M7.22683 29.7417C7.22683 29.7417 6.89304 28.1702 8.01105 26.3745C9.12905 24.5788 11.3932 22.5705 11.3932 22.5705C11.3932 22.5705 15.3967 21.0971 16.9792 20.7538" stroke="#2E353A" stroke-width="0.5" stroke-linecap="round" stroke-linejoin="round"/>
<path id="Vector_25" d="M12.5216 20.9243C11.9022 21.842 11.3955 22.5705 11.3955 22.5705" stroke="#2E353A" stroke-width="0.5" stroke-linecap="round" stroke-linejoin="round"/>
<path id="Vector_26" d="M16.5601 15.3643C15.8322 16.0649 14.9274 16.9989 14.5493 17.7158C14.2417 18.3089 13.564 19.3504 12.9146 20.3335" stroke="#2E353A" stroke-width="0.5" stroke-linecap="round" stroke-linejoin="round"/>
<path id="Vector_27" d="M17.6107 14.4233C17.6107 14.4233 17.3553 14.6381 16.9873 14.9697" stroke="#2E353A" stroke-width="0.5" stroke-linecap="round" stroke-linejoin="round"/>
<path id="Vector_28" d="M11.833 22.9442C11.833 22.9442 15.9089 24.7236 16.5504 25.4218C16.9329 25.8337 17.2828 26.2846 17.596 26.7691" stroke="#2E353A" stroke-width="0.5" stroke-linecap="round" stroke-linejoin="round"/>
<path id="Vector_29" d="M11.6263 24.7422C11.5982 25.6249 11.6123 26.7574 11.8033 27.528C12.0403 28.4538 12.3479 29.3533 12.7222 30.2158" stroke="#2E353A" stroke-width="0.5" stroke-linecap="round" stroke-linejoin="round"/>
<path id="Vector_30" d="M11.7047 23.4112C11.7047 23.4112 11.6726 23.7428 11.6484 24.2332" stroke="#2E353A" stroke-width="0.5" stroke-linecap="round" stroke-linejoin="round"/>
</g>
<g id="Device  inject 1">
<path id="Vector_31" d="M23.5469 28.6489H69.1258C69.6948 28.6489 70.2405 28.9114 70.6429 29.3787C71.0452 29.8459 71.2713 30.4797 71.2713 31.1405V65.4669C71.2713 65.8247 71.2106 66.1791 71.0927 66.5097C70.9747 66.8403 70.8019 67.1407 70.584 67.3938C70.3661 67.6468 70.1074 67.8476 69.8227 67.9845C69.538 68.1215 69.2328 68.1919 68.9247 68.1919H23.748C23.4398 68.1919 23.1347 68.1215 22.85 67.9845C22.5653 67.8476 22.3066 67.6468 22.0887 67.3938C21.8708 67.1407 21.6979 66.8403 21.58 66.5097C21.4621 66.1791 21.4014 65.8247 21.4014 65.4669V31.1405C21.4014 30.4797 21.6274 29.8459 22.0298 29.3787C22.4321 28.9114 22.9779 28.6489 23.5469 28.6489Z" fill="white" stroke="#2E353A" stroke-linecap="round" stroke-linejoin="round"/>
<path id="Vector_32" d="M40.2275 32.5416H37.4204V34.6829H40.2275V32.5416Z" fill="#2E353A"/>
<path id="Vector_33" d="M31.1329 45.7514H28.5269V48.7543H31.1329V45.7514Z" fill="#2E353A"/>
<path id="Vector_34" d="M42.6471 35.1966H40.021V38.1996H42.6471V35.1966Z" fill="#2E353A"/>
<path id="Vector_35" d="M36.9765 32.5416H34.1694V34.6829H36.9765V32.5416Z" fill="#2E353A"/>
<path id="Vector_36" d="M45.715 35.1966H43.0889V38.1996H45.715V35.1966Z" fill="#2E353A"/>
<path id="Vector_37" d="M43.477 32.5416H40.6699V34.6829H43.477V32.5416Z" fill="#2E353A"/>
<path id="Vector_38" d="M29.5586 42.2323H24.6201V45.2353H29.5586V42.2323Z" fill="#2E353A"/>
<path id="Vector_39" d="M36.5079 35.1966H33.8818V38.1996H36.5079V35.1966Z" fill="#2E353A"/>
<path id="Vector_40" d="M28.0847 45.7514H24.6201V48.7543H28.0847V45.7514Z" fill="#2E353A"/>
<path id="Vector_41" d="M46.7285 32.5416H43.9214V34.6829H46.7285V32.5416Z" fill="#2E353A"/>
<path id="Vector_42" d="M30.3693 35.1966H27.7432V38.1996H30.3693V35.1966Z" fill="#2E353A"/>
<path id="Vector_43" d="M30.4755 32.5416H27.6685V34.6829H30.4755V32.5416Z" fill="#2E353A"/>
<path id="Vector_44" d="M33.727 32.5416H30.9199V34.6829H33.727V32.5416Z" fill="#2E353A"/>
<path id="Vector_45" d="M33.4371 35.1966H30.811V38.1996H33.4371V35.1966Z" fill="#2E353A"/>
<path id="Vector_46" d="M39.5768 35.1966H36.9507V38.1996H39.5768V35.1966Z" fill="#2E353A"/>
<path id="Vector_47" d="M59.7329 32.5416H56.9258V34.6829H59.7329V32.5416Z" fill="#2E353A"/>
<path id="Vector_48" d="M62.9819 32.5416H60.1748V34.6829H62.9819V32.5416Z" fill="#2E353A"/>
<path id="Vector_49" d="M61.0641 35.1966H58.438V38.1996H61.0641V35.1966Z" fill="#2E353A"/>
<path id="Vector_50" d="M64.1344 35.1966H61.5083V38.1996H64.1344V35.1966Z" fill="#2E353A"/>
<path id="Vector_51" d="M68.9903 45.7514H65.1235V48.7543H68.9903V45.7514Z" fill="#2E353A"/>
<path id="Vector_52" d="M66.2338 32.5416H63.4268V34.6829H66.2338V32.5416Z" fill="#2E353A"/>
<path id="Vector_53" d="M27.3005 35.1966H24.6201V38.1996H27.3005V35.1966Z" fill="#2E353A"/>
<path id="Vector_54" d="M49.9804 32.5416H47.1733V34.6829H49.9804V32.5416Z" fill="#2E353A"/>
<path id="Vector_55" d="M53.2299 32.5416H50.4229V34.6829H53.2299V32.5416Z" fill="#2E353A"/>
<path id="Vector_56" d="M51.8566 35.1966H49.2305V38.1996H51.8566V35.1966Z" fill="#2E353A"/>
<path id="Vector_57" d="M57.9962 35.1966H55.3701V38.1996H57.9962V35.1966Z" fill="#2E353A"/>
<path id="Vector_58" d="M48.7858 35.1966H46.1597V38.1996H48.7858V35.1966Z" fill="#2E353A"/>
<path id="Vector_59" d="M54.9249 35.1966H52.2988V38.1996H54.9249V35.1966Z" fill="#2E353A"/>
<path id="Vector_60" d="M56.4819 32.5416H53.6748V34.6829H56.4819V32.5416Z" fill="#2E353A"/>
<path id="Vector_61" d="M52.4815 45.7514H49.8755V48.7543H52.4815V45.7514Z" fill="#2E353A"/>
<path id="Vector_62" d="M66.1553 42.2323H63.5493V45.2353H66.1553V42.2323Z" fill="#2E353A"/>
<path id="Vector_63" d="M63.105 42.2323H60.499V45.2353H63.105V42.2323Z" fill="#2E353A"/>
<path id="Vector_64" d="M64.6792 45.7514H62.0732V48.7543H64.6792V45.7514Z" fill="#2E353A"/>
<path id="Vector_65" d="M61.6314 45.7514H59.0254V48.7543H61.6314V45.7514Z" fill="#2E353A"/>
<path id="Vector_66" d="M55.5298 45.7514H52.9238V48.7543H55.5298V45.7514Z" fill="#2E353A"/>
<path id="Vector_67" d="M58.5811 45.7514H55.9751V48.7543H58.5811V45.7514Z" fill="#2E353A"/>
<path id="Vector_68" d="M60.0547 42.2323H57.4487V45.2353H60.0547V42.2323Z" fill="#2E353A"/>
<path id="Vector_69" d="M57.0059 42.2323H54.3999V45.2353H57.0059V42.2323Z" fill="#2E353A"/>
<path id="Vector_70" d="M68.9922 32.5416H66.6777V34.6829H68.9922V32.5416Z" fill="#2E353A"/>
<path id="Vector_71" d="M27.2261 32.5416H24.6201V34.6829H27.2261V32.5416Z" fill="#2E353A"/>
<path id="Vector_72" d="M68.9925 49.2681H24.6201V52.3901H68.9925V49.2681Z" fill="#2E353A"/>
<path id="Vector_73" d="M68.9899 35.1966H64.5762V38.1996H68.9899V35.1966Z" fill="#2E353A"/>
<path id="Vector_74" d="M68.9905 42.2323H66.5977V45.2353H68.9905V42.2323Z" fill="#2E353A"/>
<path id="Vector_75" d="M65.8617 41.6953H65.4173V38.7156H62.8113V41.6953H62.3689V38.7156H59.7629V41.6953H59.3185V38.7156H56.7125V41.6953H56.2681V38.7156H53.6621V41.6953H53.2198V38.7156H50.6138V41.6953H50.1694V38.7156H47.5634V41.6953H47.119V38.7156H44.513V41.6953H44.0706V38.7156H41.4646V41.6953H41.0202V38.7156H38.4142V41.6953H37.9698V38.7156H35.3638V41.6953H34.9215V38.7156H32.3155V41.6953H31.8711V38.7156H29.2651V41.6953H28.8207V38.7156H24.6201V41.7186H68.9905V38.7156H65.8617V41.6953Z" fill="#2E353A"/>
<path id="Vector_76" d="M44.8067 42.2323H42.2007V45.2353H44.8067V42.2323Z" fill="#2E353A"/>
<path id="Vector_77" d="M53.9556 42.2323H51.3496V45.2353H53.9556V42.2323Z" fill="#2E353A"/>
<path id="Vector_78" d="M38.7085 42.2323H36.1025V45.2353H38.7085V42.2323Z" fill="#2E353A"/>
<path id="Vector_79" d="M40.2818 45.7514H37.6758V48.7543H40.2818V45.7514Z" fill="#2E353A"/>
<path id="Vector_80" d="M41.7564 42.2323H39.1504V45.2353H41.7564V42.2323Z" fill="#2E353A"/>
<path id="Vector_81" d="M35.6582 42.2323H33.0522V45.2353H35.6582V42.2323Z" fill="#2E353A"/>
<path id="Vector_82" d="M34.1836 45.7514H31.5776V48.7543H34.1836V45.7514Z" fill="#2E353A"/>
<path id="Vector_83" d="M37.232 45.7514H34.626V48.7543H37.232V45.7514Z" fill="#2E353A"/>
<path id="Vector_84" d="M47.857 42.2323H45.251V45.2353H47.857V42.2323Z" fill="#2E353A"/>
<path id="Vector_85" d="M49.4312 45.7514H46.8252V48.7543H49.4312V45.7514Z" fill="#2E353A"/>
<path id="Vector_86" d="M50.9058 42.2323H48.2998V45.2353H50.9058V42.2323Z" fill="#2E353A"/>
<path id="Vector_87" d="M43.3321 45.7514H40.7261V48.7543H43.3321V45.7514Z" fill="#2E353A"/>
<path id="Vector_88" d="M46.3809 45.7514H43.7749V48.7543H46.3809V45.7514Z" fill="#2E353A"/>
<path id="Vector_89" d="M32.607 42.2323H30.001V45.2353H32.607V42.2323Z" fill="#2E353A"/>
<path id="Vector_90" d="M74.1181 7.16571H18.2861C18.0123 7.16596 17.7423 7.23933 17.4968 7.38014C17.2513 7.52095 17.037 7.72544 16.8704 7.97779C16.7038 8.23014 16.5895 8.52359 16.5361 8.83546C16.4828 9.14734 16.492 9.46927 16.5629 9.77638L20.6448 27.4253C20.7465 27.8658 20.9705 28.2551 21.2821 28.5329C21.5936 28.8107 21.9753 28.9614 22.3681 28.9618H28.0667V30.1831H64.601V28.9688H70.0301C70.4229 28.9684 70.8046 28.8177 71.1161 28.5399C71.4277 28.2622 71.6517 27.8728 71.7534 27.4323L75.8353 9.78339C75.9072 9.47639 75.9173 9.15431 75.8648 8.84206C75.8123 8.52981 75.6987 8.23577 75.5327 7.9827C75.3666 7.72962 75.1527 7.52431 74.9074 7.38264C74.6621 7.24097 74.392 7.16674 74.1181 7.16571Z" fill="#2E353A" stroke="#2E353A" stroke-linecap="round" stroke-linejoin="round"/>
<path id="Vector_91" d="M67.8046 27.4043H24.6005L20.2793 9.34671H72.1238L67.8046 27.4043Z" fill="#F4D452" stroke="#2E353A" stroke-linecap="round" stroke-linejoin="round"/>
<path id="Vector_92" d="M27.4677 19.4789V19.7124H26.7056V19.4789H27.4677Z" fill="#2E353A"/>
<path id="Vector_93" d="M28.4164 19.4789V19.7124H27.6523V19.4789H28.4164Z" fill="#2E353A"/>
<path id="Vector_94" d="M29.366 19.4789V19.7124H28.6079V19.4789H29.366Z" fill="#2E353A"/>
<path id="Vector_95" d="M30.3124 19.4789V19.7124H29.5503V19.4789H30.3124Z" fill="#2E353A"/>
<path id="Vector_96" d="M31.2617 19.4789V19.7124H30.4976V19.4789H31.2617Z" fill="#2E353A"/>
<path id="Vector_97" d="M32.2109 19.4789V19.7124H31.4468V19.4789H32.2109Z" fill="#2E353A"/>
<path id="Vector_98" d="M33.1576 19.4789V19.7124H32.3955V19.4789H33.1576Z" fill="#2E353A"/>
<path id="Vector_99" d="M34.0969 20.7095L33.2563 18.1081H33.4574L34.2979 20.7095H34.0969Z" fill="#2E353A"/>
<path id="Vector_100" d="M26.6991 15.6913V15.9248H25.937V15.6913H26.6991Z" fill="#2E353A"/>
<path id="Vector_101" d="M27.6483 15.6913V15.9248H26.8862V15.6913H27.6483Z" fill="#2E353A"/>
<path id="Vector_102" d="M28.6074 15.6913V15.9248H27.8433V15.6913H28.6074Z" fill="#2E353A"/>
<path id="Vector_103" d="M29.5458 15.6913V15.9248H28.7817V15.6913H29.5458Z" fill="#2E353A"/>
<path id="Vector_104" d="M30.4935 15.6913V15.9248H29.7314V15.6913H30.4935Z" fill="#2E353A"/>
<path id="Vector_105" d="M32.0986 15.6913V15.9248H31.3345V15.6913H32.0986Z" fill="#2E353A"/>
<path id="Vector_106" d="M33.0453 15.6913V15.9248H32.2832V15.6913H33.0453Z" fill="#2E353A"/>
<path id="Vector_107" d="M33.995 15.6913V15.9248H33.2329V15.6913H33.995Z" fill="#2E353A"/>
<path id="Vector_108" d="M34.9438 15.6913V15.9248H34.1797V15.6913H34.9438Z" fill="#2E353A"/>
<path id="Vector_109" d="M35.8905 15.6913V15.9248H35.1284V15.6913H35.8905Z" fill="#2E353A"/>
<path id="Vector_110" d="M36.8397 15.6913V15.9248H36.0776V15.6913H36.8397Z" fill="#2E353A"/>
<path id="Vector_111" d="M37.7885 15.6913V15.9248H37.0244V15.6913H37.7885Z" fill="#2E353A"/>
<path id="Vector_112" d="M39.3915 15.6913V15.9248H38.6294V15.6913H39.3915Z" fill="#2E353A"/>
<path id="Vector_113" d="M40.3408 15.6913V15.9248H39.5767V15.6913H40.3408Z" fill="#2E353A"/>
<path id="Vector_114" d="M41.2905 15.6913V15.9248H40.5264V15.6913H41.2905Z" fill="#2E353A"/>
<path id="Vector_115" d="M42.8842 15.6913V15.9248H42.1221V15.6913H42.8842Z" fill="#2E353A"/>
<path id="Vector_116" d="M43.841 15.6913V15.9248H43.085V15.6913H43.841Z" fill="#2E353A"/>
<path id="Vector_117" d="M44.7905 15.6913V15.9248H44.0264V15.6913H44.7905Z" fill="#2E353A"/>
<path id="Vector_118" d="M48.3578 15.6913V15.9248H47.5957V15.6913H48.3578Z" fill="#2E353A"/>
<path id="Vector_119" d="M49.3066 15.6913V15.9248H48.5425V15.6913H49.3066Z" fill="#2E353A"/>
<path id="Vector_120" d="M50.2563 15.6913V15.9248H49.4922V15.6913H50.2563Z" fill="#2E353A"/>
<path id="Vector_121" d="M51.2035 15.6913V15.9248H50.4414V15.6913H51.2035Z" fill="#2E353A"/>
<path id="Vector_122" d="M52.1518 15.6913V15.9248H51.3877V15.6913H52.1518Z" fill="#2E353A"/>
<path id="Vector_123" d="M53.7548 15.6913V15.9248H52.9927V15.6913H53.7548Z" fill="#2E353A"/>
<path id="Vector_124" d="M54.7039 15.6913V15.9248H53.9438V15.6913H54.7039Z" fill="#2E353A"/>
<path id="Vector_125" d="M55.6533 15.6913V15.9248H54.8892V15.6913H55.6533Z" fill="#2E353A"/>
<path id="Vector_126" d="M57.2557 15.6913V15.9248H56.4937V15.6913H57.2557Z" fill="#2E353A"/>
<path id="Vector_127" d="M58.8603 15.6913V15.9248H58.0962V15.6913H58.8603Z" fill="#2E353A"/>
</g>
<g id="Notebook  inject 1">
<path id="Vector_128" d="M71.5769 54.0691L69.4253 63.7085L71.4602 64.402L71.5769 54.0691Z" fill="white" stroke="#2E353A" stroke-linecap="round" stroke-linejoin="round"/>
<path id="Vector_129" d="M72.5415 43.8809C72.2987 43.4477 72.2101 42.922 72.2942 42.4145C72.4048 41.4641 73.3921 41.2469 73.3921 41.2469C73.3921 41.2469 73.6072 41.0578 74.3975 41.4057C75.1877 41.7536 81.2985 42.7157 85.2035 43.3298C89.1085 43.944 90.3733 43.547 90.319 45.1045C90.2647 46.6621 86.8383 60.6401 86.786 61.0791C86.7337 61.5182 72.5415 43.8809 72.5415 43.8809Z" fill="white" stroke="#2E353A" stroke-miterlimit="10"/>
<path id="Vector_130" d="M88.9678 46.4673L72.541 43.8813L69.8866 66.6207L86.3134 69.2067L88.9678 46.4673Z" fill="white" stroke="#2E353A" stroke-linecap="round" stroke-linejoin="round"/>
<path id="Vector_131" d="M85.9141 51.0031L86.8692 51.1548" stroke="#2E353A" stroke-width="0.5" stroke-linecap="round" stroke-linejoin="round"/>
<path id="Vector_132" d="M79.9312 50.062L85.1572 50.8863" stroke="#2E353A" stroke-width="0.5" stroke-linecap="round" stroke-linejoin="round"/>
<path id="Vector_133" d="M73.5972 49.0649L79.1751 49.9429" stroke="#2E353A" stroke-width="0.5" stroke-linecap="round" stroke-linejoin="round"/>
<path id="Vector_134" d="M84.418 52.8268L86.6339 53.1771" stroke="#2E353A" stroke-width="0.5" stroke-linecap="round" stroke-linejoin="round"/>
<path id="Vector_135" d="M73.3628 51.0871L82.152 52.4695" stroke="#2E353A" stroke-width="0.5" stroke-linecap="round" stroke-linejoin="round"/>
<path id="Vector_136" d="M77.8223 53.8473L86.3983 55.197" stroke="#2E353A" stroke-width="0.5" stroke-linecap="round" stroke-linejoin="round"/>
<path id="Vector_137" d="M73.125 53.107L76.9395 53.7095" stroke="#2E353A" stroke-width="0.5" stroke-linecap="round" stroke-linejoin="round"/>
<path id="Vector_138" d="M80.6709 56.3552L86.1604 57.2192" stroke="#2E353A" stroke-width="0.5" stroke-linecap="round" stroke-linejoin="round"/>
<path id="Vector_139" d="M76.0122 55.6196L80.0419 56.2548" stroke="#2E353A" stroke-width="0.5" stroke-linecap="round" stroke-linejoin="round"/>
<path id="Vector_140" d="M72.8901 55.1292L75.3192 55.5122" stroke="#2E353A" stroke-width="0.5" stroke-linecap="round" stroke-linejoin="round"/>
<path id="Vector_141" d="M83.9619 58.9308L85.9265 59.2391" stroke="#2E353A" stroke-width="0.5" stroke-linecap="round" stroke-linejoin="round"/>
<path id="Vector_142" d="M72.6548 57.1515L82.6404 58.723" stroke="#2E353A" stroke-width="0.5" stroke-linecap="round" stroke-linejoin="round"/>
<path id="Vector_143" d="M80.1362 60.3856L85.6901 61.2613" stroke="#2E353A" stroke-width="0.5" stroke-linecap="round" stroke-linejoin="round"/>
<path id="Vector_144" d="M72.4175 59.1714L79.1919 60.2385" stroke="#2E353A" stroke-width="0.5" stroke-linecap="round" stroke-linejoin="round"/>
<path id="Vector_145" d="M81.8521 62.7161L85.4534 63.2812" stroke="#2E353A" stroke-width="0.5" stroke-linecap="round" stroke-linejoin="round"/>
<path id="Vector_146" d="M74.5493 61.5648L80.9718 62.576" stroke="#2E353A" stroke-width="0.5" stroke-linecap="round" stroke-linejoin="round"/>
<path id="Vector_147" d="M72.1821 61.1936L73.7928 61.4458" stroke="#2E353A" stroke-width="0.5" stroke-linecap="round" stroke-linejoin="round"/>
<path id="Vector_148" d="M88.9683 46.4683C88.9683 46.4683 89.2498 43.2972 90.2552 44.5722" stroke="#2E353A" stroke-linecap="round" stroke-linejoin="round"/>
<path id="Vector_149" d="M83.3984 70.896L83.3803 72.9112L82.3689 71.2533L78.3091 55.3955L79.3386 55.0382L83.3984 70.896Z" fill="white" stroke="#2E353A" stroke-linecap="round" stroke-linejoin="round"/>
<path id="Vector_150" d="M78.9353 55.7158L78.3735 55.9061L82.3626 71.7887L82.9243 71.5984L78.9353 55.7158Z" fill="#F4D452" stroke="#2E353A" stroke-width="0.5" stroke-linecap="round" stroke-linejoin="round"/>
<path id="Vector_151" d="M83.3981 70.9007L82.3706 71.2556L83.38 72.9112L83.3981 70.9007Z" stroke="#2E353A" stroke-linecap="round" stroke-linejoin="round"/>
<path id="Vector_152" d="M82.8755 72.0823L83.3802 72.9112L83.3903 71.9048L82.8755 72.0823Z" fill="#2E353A" stroke="#2E353A" stroke-linecap="round" stroke-linejoin="round"/>
<path id="Vector_153" d="M78.3695 53.441C78.2333 53.4885 78.1188 53.5967 78.051 53.742C77.9832 53.8872 77.9676 54.0577 78.0076 54.2162L78.3092 55.3955L79.3387 55.0405L79.0371 53.8613C78.9961 53.7031 78.903 53.5701 78.7779 53.4914C78.6528 53.4126 78.506 53.3945 78.3695 53.441Z" fill="white" stroke="#2E353A" stroke-linecap="round" stroke-linejoin="round"/>
<path id="Vector_154" d="M78.3695 53.441C78.2333 53.4885 78.1188 53.5967 78.051 53.742C77.9832 53.8872 77.9676 54.0577 78.0076 54.2162L78.1524 54.779L79.1799 54.424L79.0371 53.8613C78.9961 53.7031 78.903 53.5701 78.7779 53.4914C78.6528 53.4126 78.506 53.3945 78.3695 53.441Z" fill="#2E353A" stroke="#2E353A" stroke-linecap="round" stroke-linejoin="round"/>
</g>
<g id="Character  inject 1">
<path id="Vector_155" d="M27.7336 44.0747C27.6049 44.2849 27.4782 44.5044 27.3516 44.7356" stroke="white" stroke-linecap="round" stroke-linejoin="round"/>
<path id="Vector_156" d="M29.8365 41.2632C29.2762 41.8663 28.7578 42.5199 28.2861 43.2177" stroke="white" stroke-linecap="round" stroke-linejoin="round"/>
<path id="Vector_157" d="M27.5545 42.5032C27.0051 43.398 26.5073 44.3341 26.0645 45.3053" stroke="white" stroke-linecap="round" stroke-linejoin="round"/>
<path id="Vector_158" d="M41.7361 47.6381C41.6094 47.8483 41.4807 48.0678 41.354 48.2966" stroke="white" stroke-linecap="round" stroke-linejoin="round"/>
<path id="Vector_159" d="M43.8398 44.8266C43.2806 45.4302 42.7629 46.0837 42.2915 46.7811" stroke="white" stroke-linecap="round" stroke-linejoin="round"/>
<path id="Vector_160" d="M41.5589 46.062C41.0098 46.9619 40.5121 47.9026 40.0688 48.8781" stroke="white" stroke-linecap="round" stroke-linejoin="round"/>
<path id="Vector_161" d="M61.808 41.8587C61.625 41.7139 61.432 41.5692 61.2329 41.4244" stroke="white" stroke-linecap="round" stroke-linejoin="round"/>
<path id="Vector_162" d="M64.2609 44.2592C63.732 43.6196 63.1613 43.0286 62.5537 42.4915" stroke="white" stroke-linecap="round" stroke-linejoin="round"/>
<path id="Vector_163" d="M63.159 41.6252C62.3765 41.0012 61.5597 40.4372 60.7139 39.9369" stroke="white" stroke-linecap="round" stroke-linejoin="round"/>
<path id="Vector_164" d="M41.1253 56.3365C41.0207 57.2145 40.8639 58.4381 40.707 59.1644" stroke="#2E353A" stroke-linecap="round" stroke-linejoin="round"/>
<path id="Vector_165" d="M41.2411 55.2693C41.2411 55.2693 41.225 55.4351 41.1948 55.7037" stroke="#2E353A" stroke-linecap="round" stroke-linejoin="round"/>
<path id="Vector_166" d="M41.7789 57.7609C41.5594 58.6115 41.2907 59.4439 40.9746 60.2525" stroke="#2E353A" stroke-linecap="round" stroke-linejoin="round"/>
<path id="Vector_167" d="M51.8325 59.0056C51.8325 59.0056 51.9672 61.0301 52.9043 62.1206" stroke="#2E353A" stroke-linecap="round" stroke-linejoin="round"/>
<path id="Vector_168" d="M51.6982 61.0301C51.6982 61.0301 52.1004 62.4312 52.9047 63.0546" stroke="#2E353A" stroke-linecap="round" stroke-linejoin="round"/>
<g id="Vector_169" style="mix-blend-mode:multiply">
<path d="M24.3848 71.8511C24.3848 71.8511 25.2776 71.0174 25.2776 63.8509C25.2776 56.6844 26.3051 51.4491 27.5719 49.1536C28.8387 46.8582 30.0231 45.9382 30.578 45.9382C31.133 45.9382 30.7349 46.7648 29.9446 47.958C29.1544 49.1513 28.4426 49.7958 28.1249 51.2669C27.8072 52.7381 27.8092 54.5735 28.2053 54.389C28.6014 54.2045 29.2328 50.5314 29.7858 49.1536C30.3388 47.7759 31.686 46.0292 32.4762 45.2026C33.2665 44.376 35.0078 41.8961 35.7981 42.5382C36.5883 43.1804 36.1158 44.1004 35.6412 44.467C35.1667 44.8336 33.2665 47.0357 32.3978 48.4181C31.5291 49.8005 30.9742 53.2868 31.4487 53.3779C31.9233 53.4689 33.3469 48.327 34.1372 47.2248C34.9274 46.1226 38.0924 43.0893 38.8042 42.9982C39.5161 42.9072 39.5965 44.1915 38.9631 44.836C38.3297 45.4805 36.1942 48.2336 35.4824 49.8869C34.7706 51.5401 34.4529 54.5735 35.0802 53.8379C35.7076 53.1023 36.7411 50.0713 37.6118 49.0602C38.4825 48.0491 41.0925 44.836 41.7259 45.2026C42.3593 45.5692 42.2005 46.4892 41.6475 47.1314C41.0945 47.7736 38.9571 51.2669 38.4041 53.1023C37.8511 54.9377 37.2157 60.0844 37.5334 59.3511C37.8511 58.6179 38.8786 54.849 39.4316 53.2798C39.9846 51.7106 41.0925 50.9844 41.2514 51.7176C41.4102 52.4508 41.0925 52.8198 40.6964 54.4754C40.3003 56.131 40.2942 60.5467 39.1159 63.0173C37.9376 65.4878 33.2082 70.7746 32.5768 72.61C32.1194 73.8742 31.5733 75.0925 30.944 76.2528" fill="#F4D452"/>
</g>
<g id="Vector_170" style="mix-blend-mode:multiply">
<path d="M68.3315 72.4722C68.3315 72.4722 67.4166 71.0174 67.4166 63.8509C67.4166 56.6844 66.387 51.4491 65.1222 49.1536C63.8574 46.8582 62.669 45.9382 62.1161 45.9382C61.5631 45.9382 61.9572 46.7648 62.7495 47.958C63.5417 49.1513 64.2515 49.7958 64.5592 51.2669C64.8669 52.7381 64.8769 54.5735 64.4808 54.389C64.0847 54.2045 63.4533 50.5314 62.8983 49.1536C62.3433 47.7759 61.0001 46.0292 60.2098 45.2026C59.4196 44.376 57.6782 41.8961 56.886 42.5382C56.0937 43.1804 56.5703 44.1004 57.0448 44.467C57.5194 44.8336 59.4176 47.0357 60.2883 48.4181C61.1589 49.8005 61.7119 53.2868 61.2374 53.3779C60.7628 53.4689 59.3452 48.327 58.5549 47.2295C57.7647 46.132 54.5977 43.094 53.8859 43.0029C53.174 42.9118 53.0956 44.1962 53.729 44.8407C54.3624 45.4851 56.4979 48.2383 57.2097 49.8915C57.9215 51.5448 58.2372 54.5781 57.6119 53.8426C56.9865 53.107 55.951 50.076 55.0823 49.0649C54.2136 48.0538 51.6016 44.8406 50.9682 45.2073C50.3348 45.5739 50.4936 46.4939 51.0466 47.1361C51.5996 47.7782 53.7371 51.2716 54.29 53.107C54.843 54.9424 55.4764 60.089 55.1607 59.3558C54.845 58.6226 53.8155 54.8537 53.2625 53.2845C52.7095 51.7153 51.6016 50.989 51.4427 51.7223C51.2839 52.4555 51.6016 52.8244 51.9957 54.4801C52.3898 56.1357 52.3979 60.5514 53.5782 63.022C54.7585 65.4925 59.3532 70.3146 59.9866 72.1523C60.62 73.9901 61.7662 76.8856 61.7662 76.8856" fill="#F4D452"/>
</g>
<g id="Vector_171">
<path d="M24.083 73.6164C24.083 73.6164 25.2694 69.1166 25.2694 61.9408C25.2694 54.765 26.2969 49.5389 27.5637 47.2435C28.8305 44.9481 30.0149 44.028 30.5699 44.028C31.1248 44.028 30.7267 44.8547 29.9365 46.0479C29.1462 47.2412 28.4344 47.8857 28.1167 49.3545C27.799 50.8233 27.801 52.6633 28.1971 52.4789C28.5932 52.2944 29.2246 48.6212 29.7776 47.2435C30.3306 45.8658 31.6778 44.1191 32.4681 43.2925C33.2583 42.4658 34.9997 39.9859 35.7899 40.6281C36.5801 41.2702 36.1076 42.1903 35.6331 42.5569C35.1585 42.9235 33.2583 45.1255 32.3896 46.5079C31.521 47.8903 30.966 51.3767 31.4405 51.4678C31.9151 51.5588 33.3387 46.4169 34.129 45.3124C34.9192 44.2078 38.0842 41.1792 38.7961 41.0881C39.5079 40.997 39.5883 42.2814 38.9549 42.9259C38.3215 43.5704 36.186 46.3235 35.4742 47.9767C34.7624 49.63 34.4447 52.6633 35.072 51.9278C35.6994 51.1922 36.733 48.1612 37.6036 47.1501C38.4743 46.139 41.0843 42.9259 41.7177 43.2925C42.3512 43.6591 42.1923 44.5791 41.6393 45.2213C41.0864 45.8634 38.9489 49.3545 38.3959 51.1922C37.8429 53.03 37.2075 58.1742 37.5252 57.4387C37.8429 56.7031 38.8705 52.9389 39.4234 51.3673C39.9764 49.7958 41.0843 49.0696 41.2432 49.8051C41.4021 50.5407 41.0843 50.9073 40.6882 52.5606C40.2921 54.2139 40.2861 58.6319 39.1077 61.1048C37.9294 63.5777 33.3327 70.2912 32.6993 72.129C32.0659 73.9667 30.6422 78.0088 30.6422 78.0088" fill="white"/>
<path d="M24.083 73.6164C24.083 73.6164 25.2694 69.1167 25.2694 61.9408C25.2694 54.765 26.2969 49.5389 27.5637 47.2435C28.8305 44.9481 30.0149 44.028 30.5699 44.028C31.1248 44.028 30.7267 44.8547 29.9365 46.0479C29.1462 47.2412 28.4344 47.8857 28.1167 49.3545C27.799 50.8233 27.801 52.6633 28.1971 52.4789C28.5932 52.2944 29.2246 48.6212 29.7776 47.2435C30.3306 45.8658 31.6778 44.1191 32.4681 43.2925C33.2583 42.4658 34.9997 39.9859 35.7899 40.6281C36.5801 41.2702 36.1076 42.1903 35.6331 42.5569C35.1585 42.9235 33.2583 45.1255 32.3896 46.5079C31.521 47.8903 30.966 51.3767 31.4405 51.4678C31.9151 51.5588 33.3387 46.4169 34.129 45.3124C34.9192 44.2078 38.0842 41.1792 38.7961 41.0881C39.5079 40.997 39.5883 42.2814 38.9549 42.9259C38.3215 43.5704 36.186 46.3235 35.4742 47.9767C34.7624 49.63 34.4447 52.6633 35.072 51.9278C35.6994 51.1922 36.733 48.1612 37.6036 47.1501C38.4743 46.139 41.0843 42.9259 41.7177 43.2925C42.3512 43.6591 42.1923 44.5791 41.6393 45.2213C41.0864 45.8634 38.9489 49.3545 38.3959 51.1922C37.8429 53.03 37.2075 58.1742 37.5252 57.4387C37.8429 56.7031 38.8705 52.9389 39.4234 51.3673C39.9764 49.7958 41.0843 49.0696 41.2432 49.8051C41.4021 50.5407 41.0843 50.9073 40.6882 52.5606C40.2921 54.2139 40.2861 58.6319 39.1077 61.1048C37.9294 63.5777 33.3327 70.2912 32.6993 72.129C32.0659 73.9667 30.6422 78.0088 30.6422 78.0088" stroke="#2E353A" stroke-linecap="round" stroke-linejoin="round"/>
</g>
<g id="Vector_172">
<path d="M68.6007 73.6164C68.6007 73.6164 67.4143 69.1166 67.4143 61.9408C67.4143 54.765 66.3848 49.5389 65.12 47.2435C63.8552 44.9481 62.6668 44.028 62.1138 44.028C61.5608 44.028 61.955 44.8547 62.7472 46.0479C63.5395 47.2412 64.2493 47.8857 64.5569 49.3545C64.8646 50.8233 64.8746 52.6633 64.4785 52.4789C64.0824 52.2944 63.451 48.6212 62.896 47.2435C62.341 45.8658 60.9978 44.1191 60.2076 43.2925C59.4173 42.4658 57.676 39.9859 56.8837 40.6281C56.0915 41.2702 56.568 42.1903 57.0426 42.5569C57.5171 42.9235 59.4153 45.1255 60.286 46.5079C61.1567 47.8903 61.7096 51.3767 61.2351 51.4678C60.7605 51.5588 59.3369 46.4169 58.5466 45.3124C57.7564 44.2078 54.5894 41.1792 53.8776 41.0881C53.1657 40.997 53.0873 42.2814 53.7207 42.9259C54.3541 43.5704 56.4896 46.3235 57.2014 47.9767C57.9132 49.63 58.2289 52.6633 57.6036 51.9278C56.9782 51.1922 55.9427 48.1612 55.074 47.1501C54.2053 46.139 51.5933 42.9259 50.9599 43.2925C50.3265 43.6591 50.4853 44.5791 51.0383 45.2213C51.5913 45.8634 53.7288 49.3545 54.2817 51.1922C54.8347 53.03 55.4681 58.1742 55.1524 57.4387C54.8367 56.7031 53.8072 52.9389 53.2542 51.3673C52.7012 49.7958 51.5933 49.0696 51.4344 49.8051C51.2756 50.5407 51.5933 50.9073 51.9874 52.5606C52.3815 54.2139 52.3896 58.6319 53.5699 61.1048C54.7503 63.5777 59.3449 70.2912 59.9783 72.129C60.6117 73.9667 62.0354 78.0088 62.0354 78.0088" fill="white"/>
<path d="M68.6007 73.6164C68.6007 73.6164 67.4143 69.1167 67.4143 61.9408C67.4143 54.765 66.3848 49.5389 65.12 47.2435C63.8552 44.9481 62.6668 44.028 62.1138 44.028C61.5608 44.028 61.955 44.8547 62.7472 46.0479C63.5395 47.2412 64.2493 47.8857 64.5569 49.3545C64.8646 50.8233 64.8746 52.6633 64.4785 52.4789C64.0824 52.2944 63.451 48.6212 62.896 47.2435C62.341 45.8658 60.9978 44.1191 60.2076 43.2925C59.4173 42.4658 57.676 39.9859 56.8837 40.6281C56.0915 41.2702 56.568 42.1903 57.0426 42.5569C57.5171 42.9235 59.4153 45.1255 60.286 46.5079C61.1567 47.8903 61.7096 51.3767 61.2351 51.4678C60.7605 51.5588 59.3369 46.4169 58.5466 45.3124C57.7564 44.2078 54.5894 41.1792 53.8776 41.0881C53.1657 40.997 53.0873 42.2814 53.7207 42.9259C54.3541 43.5704 56.4896 46.3235 57.2014 47.9767C57.9132 49.63 58.2289 52.6633 57.6036 51.9278C56.9782 51.1922 55.9427 48.1612 55.074 47.1501C54.2053 46.139 51.5933 42.9259 50.9599 43.2925C50.3265 43.6591 50.4853 44.5791 51.0383 45.2213C51.5913 45.8634 53.7288 49.3545 54.2817 51.1922C54.8347 53.03 55.4681 58.1742 55.1524 57.4387C54.8367 56.7031 53.8072 52.9389 53.2542 51.3673C52.7012 49.7958 51.5933 49.0696 51.4344 49.8051C51.2756 50.5407 51.5933 50.9073 51.9874 52.5606C52.3815 54.2139 52.3896 58.6319 53.5699 61.1048C54.7503 63.5777 59.3449 70.2912 59.9783 72.129C60.6117 73.9667 62.0354 78.0088 62.0354 78.0088" stroke="#2E353A" stroke-linecap="round" stroke-linejoin="round"/>
</g>
<path id="Vector_173" d="M19.0767 87.6272H31.1415C31.2983 86.9267 31.4954 86.1421 31.7447 85.2921C32.6938 81.9902 35.7663 77.8617 35.7663 77.8617C33.5642 75.6095 30.9766 73.9239 28.1735 72.9159C23.5487 71.2626 20.1625 71.7483 20.1625 71.7483C20.7858 74.7329 20.8544 77.8375 20.3636 80.8553C19.7603 84.2553 19.3582 86.4059 19.0767 87.6272Z" fill="#2E353A" stroke="#2E353A" stroke-linecap="round" stroke-linejoin="round"/>
<path id="Vector_174" d="M61.4645 87.6272H73.9998C73.5977 86.4176 72.729 83.7906 71.8604 81.1636C70.674 77.5862 71.1485 72.7711 70.674 72.7711C70.1994 72.7711 64.8688 72.3578 62.2628 73.3199C59.6568 74.282 56.6929 77.0351 56.6929 77.0351C58.0346 78.8455 59.188 80.8332 60.1293 82.957C60.7344 84.4457 61.1827 86.0138 61.4645 87.6272Z" fill="#2E353A" stroke="#2E353A" stroke-linecap="round" stroke-linejoin="round"/>
<path id="Vector_175" d="M26.6129 74.5972C26.5264 74.2002 25.2395 74.798 25.2395 74.798C25.2395 74.798 25.6698 72.9066 24.9841 72.9066C24.2984 72.9066 24.212 74.3076 24.212 74.3076C24.212 74.3076 22.9251 73.7122 22.9251 74.6065C22.9251 75.5009 23.7817 75.4845 23.7817 75.4845C23.7817 75.4845 22.7521 76.979 23.5243 77.2756C24.2964 77.5721 24.8092 76.4793 24.8092 76.4793C24.8092 76.4793 25.3239 77.4764 26.0157 77.0771C26.7074 76.6778 26.1866 75.7834 26.1866 75.7834C26.1866 75.7834 26.6973 74.9965 26.6129 74.5972ZM24.8977 76.0917C24.8329 76.075 24.7736 76.0373 24.7265 75.9832C24.6794 75.929 24.6464 75.8604 24.6313 75.7855C24.6163 75.7105 24.6198 75.6321 24.6415 75.5593C24.6631 75.4865 24.7021 75.4223 24.7538 75.3741C24.8055 75.3259 24.8679 75.2956 24.9337 75.2868C24.9996 75.278 25.0663 75.291 25.1261 75.3242C25.1859 75.3575 25.2364 75.4097 25.2717 75.4748C25.3071 75.54 25.3259 75.6154 25.326 75.6924C25.3115 75.8096 25.2592 75.916 25.1796 75.9902C25.1001 76.0643 24.9993 76.1006 24.8977 76.0917ZM28.499 85.7591C28.4125 85.3621 27.1256 85.9599 27.1256 85.9599C27.1256 85.9599 27.5559 84.0685 26.8682 84.0685C26.1806 84.0685 26.0981 85.4695 26.0981 85.4695C26.0981 85.4695 24.8112 84.8718 24.8112 85.7661C24.8112 86.6605 25.6698 86.6628 25.6698 86.6628C25.6698 86.6628 24.6403 88.1573 25.4124 88.4562C26.1846 88.7551 26.6973 87.6576 26.6973 87.6576C26.6973 87.6576 27.2121 88.6547 27.9038 88.2554C28.5955 87.856 28.0747 86.9617 28.0747 86.9617C28.0747 86.9617 28.5835 86.1467 28.499 85.7591ZM26.7838 87.2536C26.7191 87.2369 26.6597 87.1992 26.6126 87.1451C26.5655 87.0909 26.5325 87.0224 26.5175 86.9474C26.5024 86.8724 26.506 86.794 26.5276 86.7212C26.5493 86.6484 26.5882 86.5842 26.6399 86.536C26.6916 86.4878 26.754 86.4576 26.8199 86.4487C26.8857 86.4399 26.9524 86.4529 27.0122 86.4861C27.072 86.5194 27.1225 86.5716 27.1579 86.6367C27.1932 86.7019 27.212 86.7773 27.2121 86.8543C27.1976 86.9706 27.1449 87.0759 27.0651 87.1481C26.9852 87.2204 26.8845 87.254 26.7838 87.2419V87.2536ZM20.9525 87.2536C20.866 86.8543 19.5811 87.4521 19.5811 87.4521C19.5811 87.4521 20.0094 85.5606 19.3237 85.5606C18.638 85.5606 18.5516 86.9617 18.5516 86.9617C18.5516 86.9617 17.2646 86.3639 17.2646 87.2606C17.2646 88.1573 18.1233 88.1573 18.1233 88.1573C18.1233 88.1573 17.0937 89.6494 17.8659 89.9483C18.638 90.2472 19.1508 89.152 19.1508 89.152C19.1508 89.152 19.6655 90.1468 20.3573 89.7498C21.049 89.3529 20.5302 88.4562 20.5302 88.4562C20.5302 88.4562 21.0389 87.6389 20.9545 87.2419L20.9525 87.2536ZM19.2372 88.7457C19.1724 88.729 19.113 88.6913 19.0659 88.637C19.0187 88.5827 18.9858 88.5141 18.9708 88.4389C18.9559 88.3638 18.9595 88.2853 18.9813 88.2125C19.0031 88.1397 19.0423 88.0755 19.0942 88.0274C19.146 87.9793 19.2086 87.9493 19.2746 87.9407C19.3405 87.9321 19.4073 87.9454 19.467 87.979C19.5268 88.0126 19.5771 88.0652 19.6123 88.1306C19.6474 88.196 19.6659 88.2717 19.6655 88.3488C19.6506 88.4642 19.598 88.5685 19.5186 88.6402C19.4393 88.712 19.3393 88.7455 19.2393 88.734L19.2372 88.7457ZM30.2967 79.4869H31.2397C31.9254 79.4869 32.3537 80.3836 32.3537 80.3836C30.8979 80.8693 30.2987 79.4753 30.2987 79.4753L30.2967 79.4869ZM29.3536 87.2536H30.2967C30.9823 87.2536 31.4106 88.1503 31.4106 88.1503C29.9548 88.636 29.3556 87.2419 29.3556 87.2419L29.3536 87.2536ZM21.1254 85.7591H22.0685C22.7541 85.7591 23.1824 86.6558 23.1824 86.6558C21.7246 87.1415 21.1254 85.7591 21.1254 85.7591ZM25.6839 78.7327L26.2348 79.6224C26.637 80.2715 26.257 81.1963 26.257 81.1963C25.0585 80.1011 25.6839 78.721 25.6839 78.721V78.7327ZM20.9665 81.7077L21.3968 80.7339C21.7125 80.0334 22.5933 79.9913 22.5933 79.9913C22.2977 81.724 20.9665 81.7077 20.9665 81.7077Z" fill="white"/>
<path id="Vector_176" d="M66.9916 76.4886C66.9051 76.0917 65.6182 76.6895 65.6182 76.6895C65.6182 76.6895 66.0485 74.798 65.3628 74.798C64.6771 74.798 64.5907 76.1991 64.5907 76.1991C64.5907 76.1991 63.3038 75.6036 63.3038 76.498C63.3038 77.3923 64.1624 77.3947 64.1624 77.3947C64.1624 77.3947 63.1329 78.8891 63.905 79.188C64.6771 79.4869 65.1899 78.3894 65.1899 78.3894C65.1899 78.3894 65.7047 79.3865 66.3964 78.9872C67.0881 78.5879 66.5673 77.6936 66.5673 77.6936C66.5673 77.6936 67.076 76.8856 66.9916 76.4886ZM65.2764 77.9831C65.2116 77.9664 65.1523 77.9288 65.1052 77.8746C65.0581 77.8204 65.0251 77.7519 65.0101 77.6769C64.995 77.6019 64.9985 77.5235 65.0202 77.4507C65.0419 77.378 65.0808 77.3138 65.1325 77.2656C65.1842 77.2174 65.2466 77.1871 65.3124 77.1783C65.3783 77.1694 65.445 77.1824 65.5048 77.2157C65.5646 77.2489 65.6151 77.3011 65.6504 77.3663C65.6858 77.4314 65.7046 77.5068 65.7047 77.5838C65.6925 77.7022 65.6409 77.8104 65.5608 77.8851C65.4807 77.9598 65.3786 77.995 65.2764 77.9831ZM71.0192 84.2553C70.9348 83.856 69.6479 84.4538 69.6479 84.4538C69.6479 84.4538 70.0762 82.5623 69.3905 82.5623C68.7048 82.5623 68.6203 83.9634 68.6203 83.9634C68.6203 83.9634 67.3334 83.3656 67.3334 84.2623C67.3334 85.159 68.19 85.159 68.19 85.159C68.19 85.159 67.1625 86.6511 67.9346 86.95C68.7068 87.2489 69.2196 86.1537 69.2196 86.1537C69.2196 86.1537 69.7343 87.1485 70.426 86.7515C71.1177 86.3546 70.597 85.4579 70.597 85.4579C70.597 85.4579 71.1057 84.6522 71.0192 84.2553ZM69.306 85.7591C69.2412 85.7424 69.1818 85.7047 69.1347 85.6504C69.0875 85.5961 69.0546 85.5274 69.0396 85.4523C69.0246 85.3772 69.0283 85.2987 69.0501 85.2259C69.0719 85.1531 69.111 85.0889 69.1629 85.0408C69.2148 84.9927 69.2774 84.9626 69.3433 84.9541C69.4093 84.9455 69.476 84.9588 69.5358 84.9924C69.5955 85.026 69.6459 85.0785 69.681 85.144C69.7162 85.2094 69.7346 85.285 69.7343 85.3621C69.7217 85.4801 69.6698 85.5877 69.5898 85.6619C69.5098 85.7361 69.4079 85.771 69.306 85.7591ZM66.7342 87.2536C66.6477 86.8543 65.3628 87.4521 65.3628 87.4521C65.3628 87.4521 65.7911 85.5606 65.1055 85.5606C64.4198 85.5606 64.3333 86.9617 64.3333 86.9617C64.3333 86.9617 63.0464 86.3639 63.0464 87.2606C63.0464 88.1573 63.905 88.1573 63.905 88.1573C63.905 88.1573 62.8755 89.6494 63.6476 89.9483C64.4198 90.2472 64.9325 89.152 64.9325 89.152C64.9325 89.152 65.4473 90.1468 66.139 89.7498C66.8307 89.3529 66.3119 88.4562 66.3119 88.4562C66.3119 88.4562 66.8126 87.6389 66.7342 87.2419V87.2536ZM65.019 88.7457C64.9542 88.729 64.8948 88.6913 64.8476 88.637C64.8005 88.5827 64.7675 88.514 64.7526 88.4389C64.7376 88.3638 64.7412 88.2853 64.7631 88.2125C64.7849 88.1397 64.824 88.0755 64.8759 88.0274C64.9278 87.9793 64.9903 87.9493 65.0563 87.9407C65.1223 87.9321 65.189 87.9454 65.2488 87.979C65.3085 88.0126 65.3589 88.0652 65.394 88.1306C65.4291 88.196 65.4476 88.2717 65.4473 88.3487C65.4323 88.4646 65.3794 88.5693 65.2997 88.6411C65.2199 88.7129 65.1193 88.7462 65.019 88.734V88.7457ZM70.6774 81.3784H71.6205C72.3061 81.3784 72.7344 82.2751 72.7344 82.2751C71.2766 82.7608 70.6774 81.3667 70.6774 81.3667V81.3784ZM60.561 87.0434H61.5041C62.1898 87.0434 62.6181 87.9378 62.6181 87.9378C61.1603 88.4375 60.561 87.0434 60.561 87.0434ZM66.0626 80.6218L66.6136 81.5115C67.0157 82.1607 66.6357 83.0854 66.6357 83.0854C65.4372 81.9925 66.0626 80.6218 66.0626 80.6218ZM71.6385 86.1888L72.1875 87.0784C72.5897 87.7253 72.2096 88.6523 72.2096 88.6523C71.0112 87.5665 71.6385 86.1888 71.6385 86.1888ZM61.3372 83.5991L61.7675 82.6253C62.0832 81.9248 62.974 81.8828 62.974 81.8828C62.6764 83.6154 61.3352 83.5991 61.3352 83.5991H61.3372Z" fill="white"/>
</g>
</g>
</svg>
